<svg width="15" height="15" viewBox="0 0 15 15" fill="none" xmlns="http://www.w3.org/2000/svg">
<g clip-path="url(#clip0_224_1544)">
<path d="M0.221191 5.69856C1.2159 1.67747 5.28171 -0.773854 9.30118 0.221259C13.3218 1.21599 15.773 5.28076 14.7783 9.3011C13.7832 13.3214 9.71858 15.7735 5.69797 14.7784C1.6785 13.784 -0.774277 9.71851 0.221191 5.69856Z" fill="#F1F2F2"/>
<path d="M14.4352 4.64824H8.62609V5.79642H14.804C14.7121 5.40293 14.5879 5.01932 14.4352 4.64824ZM12.9524 2.35112H8.62609V3.50044H13.8423C13.5841 3.09062 13.2859 2.70549 12.9524 2.35112ZM2.08434 12.687H12.9167C13.2521 12.3376 13.5552 11.9536 13.8199 11.5388H1.18268C1.44475 11.9486 1.74669 12.3334 2.08434 12.687ZM9.30138 0.221124C9.07616 0.165291 8.85093 0.121233 8.62609 0.0866699V1.20294H11.5745C10.8947 0.763119 10.1316 0.426604 9.30138 0.221124ZM14.9795 6.94459H8.62647V8.09391H14.9753C15.0064 7.70726 15.0072 7.32327 14.9795 6.94459ZM0.581071 10.391H14.4196C14.5647 10.0427 14.6851 9.67888 14.7785 9.30134C14.7835 9.28159 14.7877 9.26184 14.7926 9.24171H0.205444C0.300016 9.63558 0.425731 10.0199 0.581071 10.3906M5.69856 14.7783C6.14217 14.888 6.58654 14.9556 7.02711 14.9841H7.98156C9.25049 14.9028 10.4624 14.4991 11.5111 13.8352H3.48544C4.15009 14.256 4.89261 14.5792 5.69856 14.7783Z" fill="#EF3827"/>
<path d="M8.05789 7.67252L7.89609 7.55439L7.73353 7.67252L7.79544 7.48223L7.63364 7.36411H7.8338L7.89609 7.17382L7.95724 7.36411H8.15777L7.99598 7.48223L8.05789 7.67252ZM7.26105 1.62929L7.32258 1.82072L7.16079 1.7026L6.99861 1.82072L7.0609 1.62929L6.89872 1.51231H7.09888L7.16117 1.32088L7.22307 1.51231H7.42361L7.26143 1.62929H7.26105ZM7.26105 3.35593L7.32258 3.54622L7.16079 3.42809L6.99861 3.54622L7.0609 3.35593L6.89872 3.23781H7.09888L7.16117 3.04752L7.22307 3.23781H7.42361L7.26143 3.35593H7.26105ZM7.24624 5.04724L7.30815 5.23753L7.14597 5.11941L6.98418 5.23753L7.04609 5.04724L6.88353 4.92912H7.08407L7.14597 4.73883L7.2075 4.92912H7.40804L7.24624 5.04724ZM7.29334 6.90947L7.13116 6.79135L6.96936 6.90947L7.03089 6.71918L6.86872 6.60106H7.06925L7.13116 6.41077L7.19269 6.60106H7.39323L7.23105 6.71918L7.29334 6.90947ZM6.49613 2.46564L6.55842 2.65593L6.39662 2.53895L6.23368 2.65593L6.29597 2.46564L6.13417 2.34752H6.33433L6.39662 2.15724L6.45777 2.34752H6.65793L6.49613 2.46564ZM6.49613 4.13873L6.55842 4.32901L6.39662 4.21089L6.23368 4.32901L6.29597 4.13873L6.13417 4.0206H6.33433L6.39662 3.83032L6.45777 4.0206H6.65793L6.49613 4.13873ZM6.49613 5.84865L6.55842 6.04007L6.39662 5.92195L6.23368 6.04007L6.29597 5.84865L6.13417 5.73167H6.33433L6.39662 5.54024L6.45777 5.73167H6.65793L6.49613 5.84865ZM6.5588 7.67252L6.397 7.55439L6.23406 7.67252L6.29635 7.48223L6.13455 7.36411H6.33471L6.397 7.17382L6.45815 7.36411H6.6583L6.49651 7.48223L6.5588 7.67252ZM5.76159 1.62929L5.82387 1.82072L5.6617 1.7026L5.49914 1.82072L5.56143 1.62929L5.39963 1.51231H5.59979L5.6617 1.32088L5.72361 1.51231H5.92414L5.76197 1.62929H5.76159ZM5.76159 3.35593L5.82387 3.54622L5.6617 3.42809L5.49914 3.54622L5.56143 3.35593L5.39963 3.23781H5.59979L5.6617 3.04752L5.72361 3.23781H5.92414L5.76197 3.35593H5.76159ZM5.74753 5.04724L5.80944 5.23753L5.64689 5.11941L5.48509 5.23753L5.547 5.04724L5.38482 4.92912H5.58498L5.64727 4.73883L5.70917 4.92912H5.90971L5.74791 5.04724H5.74753ZM5.79387 6.90947L5.63207 6.79135L5.4699 6.90947L5.53142 6.71918L5.36963 6.60106H5.56979L5.63207 6.41077L5.69398 6.60106H5.89414L5.73234 6.71918L5.79425 6.90947H5.79387ZM4.99742 0.794082L5.05933 0.984369L4.89753 0.866247L4.73497 0.984369L4.79688 0.794082L4.63509 0.67596H4.83562L4.89753 0.485673L4.95944 0.67596H5.15998L4.9978 0.794082H4.99742ZM4.99742 2.46564L5.05933 2.65593L4.89753 2.53895L4.73497 2.65593L4.79688 2.46564L4.63509 2.34752H4.83562L4.89753 2.15724L4.95944 2.34752H5.15998L4.9978 2.46564H4.99742ZM4.99742 4.13873L5.05933 4.32901L4.89753 4.21089L4.73497 4.32901L4.79688 4.13873L4.63509 4.0206H4.83562L4.89753 3.83032L4.95944 4.0206H5.15998L4.9978 4.13873H4.99742ZM4.99742 5.84865L5.05933 6.04007L4.89753 5.92195L4.73497 6.04007L4.79688 5.84865L4.63509 5.73167H4.83562L4.89753 5.54024L4.95944 5.73167H5.15998L4.9978 5.84865H4.99742ZM5.05933 7.67252L4.89753 7.55439L4.73497 7.67252L4.79688 7.48223L4.63509 7.36411H4.83562L4.89753 7.17382L4.95944 7.36411H5.15998L4.9978 7.48223L5.05971 7.67252H5.05933ZM4.2625 1.56928L4.32479 1.76071L4.16185 1.64259L4.00005 1.76071L4.06234 1.56928L3.90016 1.4523H4.10032L4.16223 1.26201L4.22452 1.4523H4.42467L4.26288 1.56928H4.2625ZM4.2625 3.29554L4.32479 3.48583L4.16185 3.36884L4.00005 3.48583L4.06234 3.29554L3.90016 3.17742H4.10032L4.16223 2.98713L4.22452 3.17742H4.42467L4.26288 3.29554H4.2625ZM4.24731 4.98723L4.30959 5.17752L4.1478 5.0594L3.98486 5.17752L4.04715 4.98723L3.88535 4.86911H4.08551L4.1478 4.67882L4.20895 4.86911H4.40948L4.24731 4.98723ZM4.29478 6.85022L4.1326 6.7321L3.97081 6.85022L4.03272 6.65879L3.87016 6.54181H4.07032L4.1326 6.35152L4.19451 6.54181H4.39505L4.23325 6.65879L4.29516 6.85022H4.29478ZM3.49833 2.46564L3.56062 2.65593L3.39882 2.53895L3.23589 2.65593L3.29817 2.46564L3.13638 2.34752H3.33577L3.39844 2.15724L3.45959 2.34752H3.65975L3.49795 2.46564H3.49833ZM3.49833 4.13873L3.56062 4.32901L3.39882 4.21089L3.23589 4.32901L3.29817 4.13873L3.13638 4.0206H3.33577L3.39844 3.83032L3.45959 4.0206H3.65975L3.49795 4.13873H3.49833ZM3.49833 5.84865L3.56062 6.04007L3.39882 5.92195L3.23589 6.04007L3.29817 5.84865L3.13638 5.73167H3.33577L3.39844 5.54024L3.45959 5.73167H3.65975L3.49795 5.84865H3.49833ZM3.56062 7.67252L3.39882 7.55439L3.23589 7.67252L3.29817 7.48223L3.13638 7.36411H3.33577L3.39844 7.17382L3.45959 7.36411H3.65975L3.49795 7.48223L3.56024 7.67252H3.56062ZM2.76379 3.27921L2.8257 3.46949L2.6639 3.35137L2.50134 3.46949L2.56363 3.27921L2.40146 3.16108H2.60199L2.6639 2.9708L2.72543 3.16108H2.92635L2.76417 3.27921H2.76379ZM2.74898 4.9709L2.81088 5.16119L2.64909 5.04306L2.48653 5.16119L2.54844 4.9709L2.38664 4.85278H2.5868L2.64909 4.66249L2.71024 4.85278H2.91077L2.74898 4.9709ZM2.79531 6.83275L2.63352 6.71462L2.47172 6.83275L2.53325 6.64246L2.37069 6.52434H2.57123L2.63314 6.33405L2.69542 6.52434H2.89558L2.73302 6.64246L2.79493 6.83275H2.79531ZM6.33433 0.67596L6.39662 0.485673L6.45777 0.67596H6.65793L6.49613 0.794082L6.55842 0.984369L6.39662 0.866247L6.23368 0.984369L6.29597 0.794082L6.13417 0.67596H6.33433ZM7.83342 5.73167L7.89571 5.54024L7.95686 5.73167H8.15739L7.9956 5.84865L8.0575 6.04007L7.89571 5.92195L7.73315 6.04007L7.79506 5.84865L7.63326 5.73167H7.83342ZM7.83342 4.0206L7.89571 3.83032L7.95686 4.0206H8.15739L7.9956 4.13873L8.0575 4.32901L7.89571 4.21089L7.73315 4.32901L7.79506 4.13873L7.63326 4.0206H7.83342ZM7.83342 2.34752L7.89571 2.15724L7.95686 2.34752H8.15739L7.9956 2.46564L8.0575 2.65593L7.89571 2.53895L7.73315 2.65593L7.79506 2.46564L7.63326 2.34752H7.83342ZM7.83342 0.67596L7.89571 0.485673L7.95686 0.67596H8.15739L7.9956 0.794082L8.0575 0.984369L7.89571 0.866247L7.73315 0.984369L7.79506 0.794082L7.63326 0.67596H7.83342ZM1.99924 4.13873L2.06115 4.32901L1.89897 4.21089L1.73718 4.32901L1.79909 4.13873L1.63691 4.0206H1.83707L1.89935 3.83032L1.96126 4.0206H2.1618L1.99962 4.13873H1.99924ZM1.99924 5.84865L2.06115 6.04007L1.89897 5.92195L1.73718 6.04007L1.79909 5.84865L1.63691 5.73167H1.83707L1.89935 5.54024L1.96126 5.73167H2.1618L1.99962 5.84865H1.99924ZM2.06115 7.67252L1.89897 7.55439L1.73718 7.67252L1.79909 7.48223L1.63653 7.36411H1.83669L1.89897 7.17382L1.96088 7.36411H2.1618L1.99962 7.48223L2.06153 7.67252H2.06115ZM1.24875 4.94127L1.31104 5.13156L1.14886 5.01344L0.987064 5.13156L1.04897 4.94127L0.886795 4.82315H1.08733L1.14886 4.63286L1.21115 4.82315H1.41131L1.24913 4.94127H1.24875ZM1.29622 6.80312L1.13443 6.685L0.971492 6.80312L1.03378 6.61283L0.871983 6.49471H1.07214L1.13443 6.30443L1.19558 6.49471H1.39649L1.23394 6.61283L1.29622 6.80312ZM0.561683 7.67252L0.399886 7.55439L0.237709 7.67252L0.299617 7.48223L0.137821 7.36411H0.338358L0.400266 7.17382L0.462554 7.36411H0.661951L0.500154 7.48223L0.562062 7.67252H0.561683ZM8.62607 0.0864884C8.55239 0.075094 8.00585 0.0150834 7.93217 0.00634766L6.58424 0.0561033C5.18694 0.228159 3.87662 0.791803 2.79759 1.6593L2.82532 1.74438L2.75505 1.6931C2.50704 1.89554 2.27156 2.11432 2.05052 2.3479H2.16104L1.99886 2.46602L2.06077 2.65631L1.89859 2.53933L1.83403 2.58605C1.68287 2.76038 1.5393 2.94193 1.40409 3.1307H1.4265L1.3794 3.16488C1.34674 3.21122 1.31408 3.25794 1.28255 3.30503L1.32585 3.43911L1.2366 3.37454C0.78045 4.06732 0.431789 4.84746 0.221378 5.69824C0.218719 5.70926 0.21606 5.72065 0.213402 5.73167H0.337598L0.399506 5.54024L0.461794 5.73167H0.661191L0.499395 5.84865L0.561303 6.04007L0.399506 5.92195L0.23733 6.04007L0.299238 5.84865L0.202767 5.77876C0.0181823 6.56042 -0.0368893 7.34284 0.0242592 8.10323H8.62607V0.0864884Z" fill="#223C72"/>
</g>
<defs>
<clipPath id="clip0_224_1544">
<rect width="15" height="15" fill="white"/>
</clipPath>
</defs>
</svg>
