<svg width="36" height="36" viewBox="0 0 36 36" fill="none" xmlns="http://www.w3.org/2000/svg">
<g clip-path="url(#clip0_126_7693)">
<mask id="mask0_126_7693" style="mask-type:luminance" maskUnits="userSpaceOnUse" x="0" y="0" width="36" height="36">
<path d="M36 0H0V36H36V0Z" fill="white"/>
</mask>
<g mask="url(#mask0_126_7693)">
<path d="M33.0001 27.4936C33.0001 28.0336 32.8801 28.5886 32.6251 29.1286C32.3701 29.6686 32.0401 30.1786 31.6052 30.6586C30.8701 31.4686 30.0601 32.0536 29.1451 32.4286C28.2451 32.8036 27.2551 32.9986 26.2051 32.9986C24.6751 32.9986 23.0401 32.6386 21.3151 31.9036C19.5901 31.1686 17.8501 30.1786 16.1401 28.9336C15.2701 28.2886 14.4151 27.6286 13.5901 26.9086L18.4801 22.0186C18.4951 22.0186 18.4951 22.0186 18.5101 22.0336C19.2901 22.6936 19.9351 23.1436 20.4451 23.4136C20.5201 23.4436 20.6101 23.4886 20.7151 23.5336C20.8351 23.5786 20.9551 23.5936 21.0901 23.5936C21.3451 23.5936 21.5401 23.5036 21.7051 23.3386L22.8451 22.2136C23.2201 21.8386 23.5801 21.5536 23.9251 21.3736C24.2701 21.1636 24.6152 21.0586 24.9902 21.0586C25.2752 21.0586 25.5751 21.1186 25.9051 21.2536C26.2351 21.3886 26.5801 21.5836 26.9551 21.8386L31.9351 25.3636C32.3251 25.6336 32.5951 25.9486 32.7601 26.3236C32.9101 26.6986 33.0001 27.0736 33.0001 27.4936Z" fill="white"/>
<path opacity="0.4" d="M16.14 19.86L11.25 24.75C11.235 24.75 11.235 24.75 11.22 24.735C9.675 23.175 8.28 21.54 7.02 19.83C5.805 18.15 4.83 16.455 4.11 14.79C4.095 14.76 4.095 14.745 4.08 14.715C3.36 13.005 3 11.37 3 9.81C3 8.79 3.18 7.815 3.54 6.915C3.84 6.15 4.29 5.43 4.905 4.785C5.01 4.665 5.13 4.53 5.265 4.41C5.505 4.17 5.745 3.96 6 3.795C6.015 3.795 6.015 3.795 6.015 3.795C6.765 3.255 7.56 3 8.4 3C8.82 3 9.24 3.09 9.615 3.27C9.975 3.435 10.29 3.675 10.545 4.02C10.575 4.05 10.59 4.08 10.62 4.11L14.1 9.015C14.37 9.39 14.565 9.735 14.7 10.065C14.835 10.38 14.91 10.695 14.91 10.98C14.91 11.34 14.805 11.7 14.595 12.045C14.4 12.39 14.115 12.75 13.755 13.11L12.615 14.295C12.45 14.46 12.375 14.655 12.375 14.895C12.375 15.015 12.39 15.12 12.42 15.24C12.465 15.36 12.51 15.45 12.54 15.54C12.81 16.035 13.275 16.68 13.935 17.46C14.61 18.24 15.33 19.035 16.11 19.83C16.125 19.845 16.125 19.845 16.14 19.86Z" fill="white"/>
<path d="M32.6549 3.34629C32.2049 2.89629 31.4699 2.89629 31.0199 3.34629L3.34482 31.0364C2.89482 31.4864 2.89482 32.2213 3.34482 32.6713C3.56982 32.8813 3.85482 33.0014 4.15482 33.0014C4.45482 33.0014 4.73982 32.8814 4.96482 32.6564L32.6549 4.96629C33.1199 4.51629 33.1199 3.79629 32.6549 3.34629Z" fill="white"/>
</g>
</g>
<defs>
<clipPath id="clip0_126_7693">
<rect width="36" height="36" fill="white"/>
</clipPath>
</defs>
</svg>
