<svg width="50" height="50" viewBox="0 0 50 50" fill="none" xmlns="http://www.w3.org/2000/svg">
<g clip-path="url(#clip0_45_3548)">
<path d="M43.4524 29.1667L37.2835 22.9978H22.8896C22.3442 22.9978 21.8212 22.7812 21.4356 22.3956C21.05 22.0099 20.8333 21.4869 20.8333 20.9415V8.60388C20.8333 8.05853 21.05 7.5355 21.4356 7.14988C21.8212 6.76425 22.3442 6.54761 22.8896 6.54761H41.3961C41.9415 6.54761 42.4645 6.76425 42.8501 7.14988C43.2357 7.5355 43.4524 8.05853 43.4524 8.60388V29.1667Z" stroke="#7429FF" stroke-width="4" stroke-linecap="round" stroke-linejoin="round"/>
<path d="M29.1667 31.3852V35.606C29.1667 36.1657 28.9443 36.7025 28.5485 37.0983C28.1528 37.494 27.616 37.7164 27.0563 37.7164H12.2835L5.95238 44.0475V22.9436C5.95238 22.3839 6.17472 21.8471 6.5705 21.4514C6.96627 21.0556 7.50306 20.8333 8.06277 20.8333H12.2835" stroke="#7429FF" stroke-width="4" stroke-linecap="round" stroke-linejoin="round"/>
</g>
<defs>
<clipPath id="clip0_45_3548">
<rect width="50" height="50" fill="white"/>
</clipPath>
</defs>
</svg>
