<svg width="37" height="37" viewBox="0 0 37 37" fill="none" xmlns="http://www.w3.org/2000/svg">
<mask id="mask0_229_4027" style="mask-type:alpha" maskUnits="userSpaceOnUse" x="0" y="0" width="37" height="37">
<circle cx="18.5" cy="18.5" r="18.5" fill="#D9D9D9"/>
</mask>
<g mask="url(#mask0_229_4027)">
<path d="M0 0H51V37.9231H0V0Z" fill="#EE1C25"/>
<path d="M6.12035 14.032L9.56281 3.79272L13.0053 14.032L3.82538 7.77465H15.3002L6.12035 14.032Z" fill="#FFFF00"/>
<path d="M21.0513 3.98793L17.5086 4.76631L19.8717 2.03611L19.6399 5.7106L17.6739 2.45757L21.0513 3.98793Z" fill="#FFFF00"/>
<path d="M24.6266 8.48101L21.0567 7.83619L24.3028 6.22838L22.6518 9.52613L22.1122 5.77175L24.6266 8.48101Z" fill="#FFFF00"/>
<path d="M24.1055 14.784L21.1113 12.7516L24.7365 12.5963L21.8725 14.9397L22.9242 11.2935L24.1055 14.784Z" fill="#FFFF00"/>
<path d="M19.6023 18.9011L17.6321 15.8799L21.0366 17.1248L17.4819 18.1896L19.8724 15.2292L19.6023 18.9011Z" fill="#FFFF00"/>
</g>
</svg>
