<svg width="37" height="37" viewBox="0 0 37 37" fill="none" xmlns="http://www.w3.org/2000/svg">
<mask id="mask0_14_971" style="mask-type:alpha" maskUnits="userSpaceOnUse" x="0" y="0" width="37" height="37">
<circle cx="18.5" cy="18.5" r="18.5" fill="#D9D9D9"/>
</mask>
<g mask="url(#mask0_14_971)">
<path d="M-6.16667 0H42.2857V37H-6.16667V0Z" fill="#012169"/>
<path d="M-0.488658 0L17.9838 13.9521L36.3806 0H42.2857V4.77917L24.1161 18.5771L42.2857 32.2979V37H36.2292L18.0595 23.2021L-0.0344176 37H-6.16667V32.375L11.9273 18.6542L-6.16667 4.93333V0H-0.488658Z" fill="white"/>
<path d="M25.933 21.6604L42.2857 33.9167V37L21.7692 21.6604H25.933ZM12.003 23.2021L12.4572 25.9L-2.0785 37H-6.16667L12.003 23.2021ZM42.2857 0V0.23125L23.4347 14.7229L23.5861 11.3313L38.5004 0H42.2857ZM-6.16667 0L11.9273 13.5667H7.38485L-6.16667 3.2375V0Z" fill="#C8102E"/>
<path d="M12.0787 0V37H24.1918V0H12.0787ZM-6.16667 12.3333V24.6667H42.2857V12.3333H-6.16667Z" fill="white"/>
<path d="M-6.16667 14.8771V22.2771H42.2857V14.8771H-6.16667ZM14.5013 0V37H21.7692V0H14.5013Z" fill="#C8102E"/>
</g>
</svg>
