<svg width="21" height="25" viewBox="0 0 21 25" fill="none" xmlns="http://www.w3.org/2000/svg">
<path d="M14.8827 3.02198C14.1375 2.32698 13.3563 1.59651 12.5608 0.800401C11.9506 0.189751 11.1265 -0.093252 10.309 0.0272465C9.51672 0.142421 8.81184 0.638629 8.38478 1.38184C7.25599 3.45752 6.45789 5.73019 6.02497 8.10177C5.85509 7.83186 5.7044 7.54798 5.57421 7.25252C5.12571 6.21272 3.99612 5.76986 3.05118 6.26338C2.8224 6.38285 2.61773 6.55161 2.44928 6.75963C0.860935 8.54567 -0.0195934 10.9515 0.000470059 13.4504C-0.0446727 18.7027 3.16597 23.3141 7.78629 24.6332C8.64596 24.8712 9.52857 24.9944 10.415 25C10.4434 25 10.7455 24.9969 10.8676 24.9875C16.5209 24.786 21.007 19.6807 21 13.4566C20.9962 8.73636 18.163 6.08964 14.8827 3.02198ZM10.3913 22.9087C9.6866 22.8497 8.99014 22.5356 8.46432 22.0688C7.64092 21.4277 7.09606 20.4875 6.96626 19.4044C6.80527 17.7143 7.75225 15.5042 9.68686 13.0075C9.88972 12.7468 10.1865 12.5974 10.4984 12.5991C10.8063 12.5966 11.0991 12.7456 11.2967 13.0054C13.0694 15.3208 14.0429 17.4569 14.0429 19.0209C14.0374 21.0758 12.5778 22.7013 10.7191 22.8993C10.6374 22.908 10.4984 22.9212 10.3913 22.9087ZM15.7786 20.9268C15.7227 20.9747 15.6612 21.0133 15.6043 21.0591C15.8228 20.4057 15.9353 19.7151 15.9367 19.0188C15.9367 16.3857 14.1991 13.5639 12.7427 11.6602C12.1855 10.934 11.3659 10.5147 10.5022 10.5139H10.4984C9.63293 10.5122 8.81037 10.9286 8.24842 11.6528C5.93313 14.6372 4.86972 17.3182 5.08749 19.6221C5.1392 20.157 5.26336 20.6803 5.45587 21.1747C3.20725 19.3818 1.88231 16.5059 1.89722 13.4503C1.87893 11.4653 2.5903 9.5564 3.8697 8.15692C4.08813 8.65659 4.35042 9.13155 4.65284 9.57511C5.06818 10.193 5.77773 10.4797 6.45771 10.3045C7.15101 10.1357 7.6893 9.53403 7.83175 8.76859C8.2122 6.55576 8.93923 4.4325 9.98036 2.49363C10.1085 2.27198 10.3201 2.12515 10.557 2.0935C10.8219 2.05428 11.0889 2.14625 11.2862 2.34461C12.0987 3.15738 12.896 3.90762 13.6536 4.61308C16.8145 7.56717 19.0995 9.70122 19.0995 13.4566C19.1076 16.3791 17.8816 19.14 15.7814 20.9288L15.7786 20.9268Z" fill="#727590"/>
</svg>
