<svg width="29" height="32" viewBox="0 0 29 32" fill="none" xmlns="http://www.w3.org/2000/svg">
<path fill-rule="evenodd" clip-rule="evenodd" d="M15.9796 0.488109C15.8829 0.357347 15.7612 0.247588 15.6215 0.165387C15.4819 0.0831853 15.3273 0.0302271 15.1669 0.00967402C15.0066 -0.0108791 14.8437 0.00139435 14.6882 0.0457617C14.5326 0.0901291 14.3875 0.165681 14.2616 0.267905C11.1872 2.75908 9.15937 6.33102 8.58441 10.2678C7.53076 9.49656 6.6072 8.55891 5.84931 7.49092C5.74637 7.34569 5.61297 7.22516 5.4586 7.13791C5.30423 7.05067 5.1327 6.99886 4.95623 6.98619C4.77975 6.97351 4.60268 7.00027 4.43763 7.06456C4.27257 7.12886 4.12359 7.2291 4.00131 7.35815C1.88272 9.5951 0.52468 12.4547 0.123898 15.5228C-0.276883 18.5908 0.300411 21.708 1.77216 24.4228C3.2439 27.1375 5.53368 29.3089 8.30979 30.6223C11.0859 31.9358 14.2042 32.3231 17.213 31.7282C20.2218 31.1333 22.9648 29.587 25.0447 27.3134C27.1247 25.0398 28.4335 22.1569 28.7816 19.0823C29.1297 16.0077 28.4991 12.9011 26.981 10.2124C25.463 7.52378 23.1363 5.39273 20.3381 4.12795C18.618 3.28368 17.1234 2.03553 15.9796 0.488109Z" fill="#FF8D28"/>
<path d="M11.8575 24C11.4653 24 11.0732 23.8472 10.7636 23.5198L7.66767 20.2456C7.06911 19.6126 7.06911 18.5648 7.66767 17.9318C8.26622 17.2988 9.25694 17.2988 9.85549 17.9318L11.8575 20.0491L19.0195 12.4748C19.6181 11.8417 20.6088 11.8417 21.2073 12.4748C21.8059 13.1078 21.8059 14.1555 21.2073 14.7885L12.9514 23.5198C12.6418 23.8472 12.2496 24 11.8575 24Z" fill="white"/>
</svg>
