<svg width="22" height="22" viewBox="0 0 22 22" fill="none" xmlns="http://www.w3.org/2000/svg">
<path opacity="0.987" fill-rule="evenodd" clip-rule="evenodd" d="M9.2783 0.0945764C10.407 -0.0315255 11.0749 -0.0315255 12.2876 0.0945764C14.4344 0.412314 16.4244 1.40461 17.97 2.92798C16.9256 3.91521 15.8949 4.91685 14.8782 5.93263C12.9311 4.2824 10.7578 3.9015 8.35822 4.78993C6.59798 5.59947 5.37225 6.91134 4.68102 8.72555C3.55146 7.88461 2.43661 7.02408 1.33698 6.14435C1.26056 6.10413 1.17328 6.0894 1.08789 6.10232C2.83464 2.73441 5.56426 0.731313 9.27674 0.0930195" fill="#F44336"/>
<path opacity="0.997" fill-rule="evenodd" clip-rule="evenodd" d="M1.08394 6.10213C1.17216 6.08864 1.25571 6.10265 1.33458 6.14417C2.43421 7.02389 3.54906 7.88442 4.67863 8.72536C4.50088 9.43225 4.38883 10.154 4.34391 10.8816C4.38231 11.5852 4.49388 12.2759 4.67863 12.9537L1.168 15.7482C-0.360789 12.5536 -0.388812 9.33823 1.08394 6.10213Z" fill="#FFC107"/>
<path opacity="0.999" fill-rule="evenodd" clip-rule="evenodd" d="M17.803 19.1329C16.7099 18.1689 15.5655 17.2646 14.3749 16.424C15.5684 15.5813 16.2929 14.4251 16.5482 12.9554H10.6992V8.89371C14.0723 8.86569 17.4439 8.89423 20.8139 8.97934C21.4532 12.451 20.7147 15.5813 18.5985 18.37C18.3469 18.6375 18.0803 18.8921 17.803 19.1329Z" fill="#448AFF"/>
<path opacity="0.993" fill-rule="evenodd" clip-rule="evenodd" d="M4.67859 12.9552C5.95518 16.128 8.29559 17.609 11.6998 17.3983C12.6555 17.2877 13.5717 16.9539 14.3744 16.4238C15.5659 17.2665 16.7086 18.1695 17.8025 19.1326C16.0693 20.6902 13.8593 21.6143 11.5333 21.7543C11.0048 21.7966 10.4738 21.7966 9.9453 21.7543C5.98268 21.2873 3.05691 19.2852 1.16797 15.7481L4.67859 12.9552Z" fill="#43A047"/>
</svg>
