<svg width="23" height="23" viewBox="0 0 23 23" fill="none" xmlns="http://www.w3.org/2000/svg">
<g clip-path="url(#clip0_25_1756)">
<path d="M22.0867 16.4802L17.9486 20.2512C16.0023 22.0242 13.4809 22.9997 10.8493 22.9997H0.958333C0.428375 22.9997 0 22.5714 0 22.0414C0 21.5115 0.428375 21.0831 0.958333 21.0831H10.8483C13.0017 21.0831 15.064 20.2848 16.6568 18.8339L20.7623 15.0945C21.0948 14.761 21.1744 14.1898 20.9118 13.8256C20.7393 13.587 20.4882 13.4432 20.2026 13.4193C19.9237 13.4011 19.6468 13.4979 19.4475 13.6972L15.3899 17.4213C14.8743 17.9081 14.1805 18.2081 13.4167 18.2081H8.625C8.09504 18.2081 7.66667 17.7797 7.66667 17.2497C7.66667 16.7198 8.09504 16.2914 8.625 16.2914H13.4167C13.6582 16.2914 14.375 16.1812 14.375 15.3331C14.375 14.8041 13.9457 14.3747 13.4167 14.3747H8.70933C6.40646 14.3747 4.23967 15.2727 2.6105 16.9009L1.65408 17.91C1.46529 18.1084 1.21229 18.209 0.958333 18.209C0.721625 18.209 0.483958 18.1218 0.299 17.9465C-0.0843333 17.5813 -0.100625 16.9747 0.263542 16.5914L1.23817 15.565C3.24779 13.5563 5.89471 12.46 8.71029 12.46H13.4176C14.6021 12.46 15.6218 13.1807 16.0617 14.2061L18.123 12.3143C18.6894 11.746 19.5184 11.4375 20.3569 11.5103C21.2003 11.5774 21.9698 12.0134 22.4681 12.7063C23.277 13.8314 23.1131 15.4529 22.0877 16.4812L22.0867 16.4802ZM3.83908 2.07166C3.79883 1.51487 4.00392 0.966705 4.40258 0.568997C4.80029 0.17033 5.34846 -0.0385862 5.90621 0.00549715C8.66333 0.200039 10.4918 1.15071 11.5 2.98783C12.5091 1.15071 14.3367 0.200039 17.0947 0.00549715C17.6611 -0.0405028 18.2007 0.17033 18.5974 0.568997C18.9961 0.966705 19.2012 1.51487 19.1609 2.07262C18.8629 6.30175 16.7843 8.34491 12.4583 8.59696V9.58212C12.4583 10.1121 12.03 10.5405 11.5 10.5405C10.97 10.5405 10.5417 10.1121 10.5417 9.58212V8.59696C6.21575 8.34396 4.13713 6.30175 3.83908 2.07166ZM12.489 6.67741C15.71 6.46275 17.0258 5.10862 17.25 1.9375C14.0597 2.14258 12.7037 3.45645 12.489 6.67741ZM5.77013 1.91641C5.97521 5.10671 7.28908 6.46275 10.51 6.67741C10.2954 3.45645 8.94125 2.14066 5.77013 1.91641Z" fill="#727590"/>
</g>
<defs>
<clipPath id="clip0_25_1756">
<rect width="23" height="23" fill="white"/>
</clipPath>
</defs>
</svg>
