<svg width="37" height="37" viewBox="0 0 37 37" fill="none" xmlns="http://www.w3.org/2000/svg">
<mask id="mask0_229_3778" style="mask-type:alpha" maskUnits="userSpaceOnUse" x="0" y="0" width="37" height="37">
<circle cx="18.5" cy="18.5" r="18.5" fill="#D9D9D9"/>
</mask>
<g mask="url(#mask0_229_3778)">
<g clip-path="url(#clip0_229_3778)">
<path d="M-7 0H43V12.5H-7V0Z" fill="#FF9933"/>
<path d="M-7 12.5H43V25H-7V12.5Z" fill="white"/>
<path d="M-7 25H43V37.5H-7V25Z" fill="#128807"/>
<path d="M18 23.75C20.7614 23.75 23 21.5114 23 18.75C23 15.9886 20.7614 13.75 18 13.75C15.2386 13.75 13 15.9886 13 18.75C13 21.5114 15.2386 23.75 18 23.75Z" fill="#000088"/>
<path d="M18 23.125C20.4162 23.125 22.375 21.1662 22.375 18.75C22.375 16.3338 20.4162 14.375 18 14.375C15.5838 14.375 13.625 16.3338 13.625 18.75C13.625 21.1662 15.5838 23.125 18 23.125Z" fill="white"/>
<path d="M17.9987 19.6249C18.482 19.6249 18.8737 19.2331 18.8737 18.7499C18.8737 18.2666 18.482 17.8749 17.9987 17.8749C17.5155 17.8749 17.1237 18.2666 17.1237 18.7499C17.1237 19.2331 17.5155 19.6249 17.9987 19.6249Z" fill="#000088"/>
<path d="M22.31 19.5467C22.4332 19.5629 22.5463 19.4762 22.5625 19.353C22.5787 19.2298 22.492 19.1168 22.3688 19.1005C22.2456 19.0843 22.1325 19.171 22.1163 19.2942C22.1001 19.4174 22.1868 19.5305 22.31 19.5467Z" fill="#000088"/>
<path d="M18.0013 23.1256L18.1513 20.5006L18.0013 19.2506L17.8513 20.5006L18.0013 23.1256Z" fill="#000088"/>
<path d="M21.9567 20.635C22.0715 20.6826 22.2031 20.6281 22.2507 20.5133C22.2983 20.3985 22.2437 20.2668 22.1289 20.2193C22.0141 20.1717 21.8825 20.2262 21.835 20.341C21.7874 20.4558 21.8419 20.5875 21.9567 20.635Z" fill="#000088"/>
<path d="M16.8687 22.9762L17.693 20.4795L17.8716 19.2333L17.4032 20.4019L16.8687 22.9762Z" fill="#000088"/>
<path d="M21.3236 21.5929C21.4222 21.6685 21.5634 21.6499 21.6391 21.5513C21.7147 21.4527 21.6962 21.3115 21.5976 21.2359C21.499 21.1602 21.3577 21.1788 21.2821 21.2774C21.2064 21.376 21.225 21.5172 21.3236 21.5929Z" fill="#000088"/>
<path d="M15.8029 22.5388L17.2453 20.3404L17.7404 19.1829L16.9855 20.1904L15.8029 22.5388Z" fill="#000088"/>
<path d="M20.4855 22.3593C20.5611 22.4579 20.7023 22.4765 20.8009 22.4008C20.8995 22.3252 20.9181 22.184 20.8425 22.0854C20.7668 21.9868 20.6256 21.9682 20.527 22.0438C20.4284 22.1195 20.4098 22.2607 20.4855 22.3593Z" fill="#000088"/>
<path d="M14.9075 21.844L16.8697 20.0939L17.6475 19.104L16.6576 19.8818L14.9075 21.844Z" fill="#000088"/>
<path d="M19.4655 22.8791C19.5131 22.9939 19.6447 23.0484 19.7595 23.0009C19.8743 22.9533 19.9288 22.8217 19.8813 22.7069C19.8337 22.5921 19.7021 22.5376 19.5873 22.5851C19.4725 22.6327 19.418 22.7643 19.4655 22.8791Z" fill="#000088"/>
<path d="M14.2121 20.9385L16.5604 19.7559L17.5679 19.001L16.4104 19.4961L14.2121 20.9385Z" fill="#000088"/>
<path d="M18.3477 23.1177C18.364 23.2409 18.477 23.3277 18.6002 23.3115C18.7234 23.2952 18.8101 23.1822 18.7939 23.059C18.7777 22.9358 18.6647 22.8491 18.5414 22.8653C18.4182 22.8815 18.3315 22.9945 18.3477 23.1177Z" fill="#000088"/>
<path d="M13.7762 19.8834L16.3506 19.3489L17.5192 18.8805L16.2729 19.0591L13.7762 19.8834Z" fill="#000088"/>
<path d="M17.2054 23.0588C17.1892 23.182 17.2759 23.295 17.3991 23.3112C17.5223 23.3274 17.6353 23.2407 17.6516 23.1175C17.6678 22.9943 17.581 22.8813 17.4578 22.8651C17.3346 22.8488 17.2216 22.9356 17.2054 23.0588Z" fill="#000088"/>
<path d="M13.6253 18.7504L16.2503 18.8994L17.5003 18.7495L16.2503 18.6003L13.6253 18.7504Z" fill="#000088"/>
<path d="M16.1208 22.7067C16.0732 22.8215 16.1277 22.9531 16.2425 23.0007C16.3574 23.0482 16.489 22.9937 16.5365 22.8789C16.5841 22.7641 16.5295 22.6325 16.4147 22.5849C16.2999 22.5374 16.1683 22.5919 16.1208 22.7067Z" fill="#000088"/>
<path d="M13.7783 17.6187L16.2751 18.443L17.5213 18.6216L16.3527 18.1532L13.7783 17.6187Z" fill="#000088"/>
<path d="M15.1573 22.0825C15.0817 22.1811 15.1003 22.3224 15.1989 22.398C15.2974 22.4737 15.4387 22.4551 15.5143 22.3565C15.59 22.2579 15.5714 22.1167 15.4728 22.041C15.3742 21.9654 15.233 21.9839 15.1573 22.0825Z" fill="#000088"/>
<path d="M14.2103 16.5617L16.4086 18.0041L17.5662 18.4992L16.5586 17.7443L14.2103 16.5617Z" fill="#000088"/>
<path d="M14.3908 21.2338C14.2922 21.3095 14.2736 21.4507 14.3492 21.5493C14.4249 21.6479 14.5661 21.6665 14.6647 21.5908C14.7633 21.5152 14.7819 21.3739 14.7062 21.2753C14.6306 21.1768 14.4893 21.1582 14.3908 21.2338Z" fill="#000088"/>
<path d="M14.9048 15.6558L16.6549 17.618L17.6448 18.3959L16.867 17.4059L14.9048 15.6558Z" fill="#000088"/>
<path d="M13.8791 20.2165C13.7643 20.264 13.7098 20.3957 13.7574 20.5105C13.8049 20.6253 13.9365 20.6798 14.0513 20.6322C14.1661 20.5847 14.2207 20.4531 14.1731 20.3383C14.1256 20.2235 13.994 20.1689 13.8791 20.2165Z" fill="#000088"/>
<path d="M15.8204 14.9622L17.0029 17.3105L17.7578 18.318L17.2628 17.1605L15.8204 14.9622Z" fill="#000088"/>
<path d="M13.6411 19.0965C13.5179 19.1127 13.4312 19.2257 13.4474 19.3489C13.4636 19.4721 13.5766 19.5589 13.6998 19.5427C13.823 19.5265 13.9098 19.4134 13.8936 19.2902C13.8773 19.167 13.7643 19.0803 13.6411 19.0965Z" fill="#000088"/>
<path d="M16.8767 14.525L17.4111 17.0993L17.8796 18.2679L17.701 17.0217L16.8767 14.525Z" fill="#000088"/>
<path d="M13.692 17.955C13.5688 17.9388 13.4557 18.0255 13.4395 18.1487C13.4233 18.2719 13.51 18.3849 13.6332 18.4012C13.7564 18.4174 13.8694 18.3307 13.8856 18.2075C13.9019 18.0843 13.8152 17.9713 13.692 17.955Z" fill="#000088"/>
<path d="M18.0005 14.3761L17.851 17.0011L18.0009 18.2511L18.1506 17.0011L18.0005 14.3761Z" fill="#000088"/>
<path d="M14.0452 16.8679C13.9304 16.8204 13.7988 16.8749 13.7513 16.9897C13.7037 17.1045 13.7582 17.2361 13.873 17.2836C13.9878 17.3312 14.1194 17.2767 14.167 17.1619C14.2145 17.0471 14.16 16.9155 14.0452 16.8679Z" fill="#000088"/>
<path d="M19.1333 14.5255L18.309 17.0222L18.1303 18.2684L18.5987 17.0998L19.1333 14.5255Z" fill="#000088"/>
<path d="M14.6697 15.9067C14.5712 15.831 14.4299 15.8496 14.3543 15.9482C14.2786 16.0468 14.2972 16.188 14.3958 16.2637C14.4944 16.3393 14.6356 16.3207 14.7113 16.2221C14.7869 16.1236 14.7683 15.9823 14.6697 15.9067Z" fill="#000088"/>
<path d="M20.1908 14.961L18.7484 17.1593L18.2533 18.3168L19.0082 17.3093L20.1908 14.961Z" fill="#000088"/>
<path d="M15.5197 15.1436C15.4441 15.045 15.3029 15.0264 15.2043 15.1021C15.1057 15.1777 15.0871 15.319 15.1627 15.4176C15.2384 15.5161 15.3796 15.5347 15.4782 15.4591C15.5768 15.3835 15.5954 15.2422 15.5197 15.1436Z" fill="#000088"/>
<path d="M21.0953 15.6601L19.1331 17.4102L18.3552 18.4002L19.3452 17.6223L21.0953 15.6601Z" fill="#000088"/>
<path d="M16.5268 14.6211C16.4793 14.5063 16.3477 14.4518 16.2329 14.4994C16.1181 14.5469 16.0635 14.6785 16.1111 14.7933C16.1587 14.9082 16.2903 14.9627 16.4051 14.9151C16.5199 14.8676 16.5744 14.7359 16.5268 14.6211Z" fill="#000088"/>
<path d="M21.7803 16.5617L19.432 17.7443L18.4245 18.4992L19.582 18.0041L21.7803 16.5617Z" fill="#000088"/>
<path d="M17.6443 14.3826C17.628 14.2594 17.515 14.1727 17.3918 14.1889C17.2686 14.2051 17.1819 14.3181 17.1981 14.4414C17.2143 14.5646 17.3274 14.6513 17.4506 14.6351C17.5738 14.6188 17.6605 14.5058 17.6443 14.3826Z" fill="#000088"/>
<path d="M22.2158 17.617L19.6414 18.1515L18.4728 18.6199L19.7191 18.4413L22.2158 17.617Z" fill="#000088"/>
<path d="M18.787 14.4413C18.8032 14.3181 18.7165 14.2051 18.5933 14.1889C18.4701 14.1727 18.357 14.2594 18.3408 14.3826C18.3246 14.5058 18.4113 14.6189 18.5345 14.6351C18.6578 14.6513 18.7708 14.5645 18.787 14.4413Z" fill="#000088"/>
<path d="M22.367 18.7496L19.742 18.6009L18.4921 18.7507L19.7421 18.8998L22.367 18.7496Z" fill="#000088"/>
<path d="M19.8728 14.7934C19.9204 14.6786 19.8659 14.547 19.751 14.4994C19.6362 14.4519 19.5046 14.5064 19.4571 14.6212C19.4095 14.736 19.464 14.8676 19.5789 14.9152C19.6937 14.9627 19.8253 14.9082 19.8728 14.7934Z" fill="#000088"/>
<path d="M22.2153 19.8814L19.7185 19.0571L18.4723 18.8785L19.6409 19.3469L22.2153 19.8814Z" fill="#000088"/>
<path d="M20.844 15.4165C20.9197 15.3179 20.9011 15.1766 20.8025 15.101C20.7039 15.0253 20.5626 15.0439 20.487 15.1425C20.4114 15.2411 20.43 15.3824 20.5285 15.458C20.6271 15.5337 20.7684 15.5151 20.844 15.4165Z" fill="#000088"/>
<path d="M21.791 20.9372L19.5926 19.4948L18.4351 18.9997L19.4426 19.7546L21.791 20.9372Z" fill="#000088"/>
<path d="M21.61 16.2674C21.7086 16.1917 21.7272 16.0505 21.6515 15.9519C21.5759 15.8533 21.4346 15.8347 21.336 15.9104C21.2374 15.986 21.2189 16.1273 21.2945 16.2259C21.3702 16.3244 21.5114 16.343 21.61 16.2674Z" fill="#000088"/>
<path d="M21.0935 21.8454L19.3434 19.8832L18.3534 19.1054L19.1313 20.0953L21.0935 21.8454Z" fill="#000088"/>
<path d="M22.1192 17.2852C22.234 17.2376 22.2885 17.106 22.241 16.9912C22.1934 16.8764 22.0618 16.8219 21.947 16.8695C21.8322 16.917 21.7777 17.0486 21.8252 17.1634C21.8728 17.2782 22.0044 17.3328 22.1192 17.2852Z" fill="#000088"/>
<path d="M20.1786 22.5399L18.996 20.1916L18.2411 19.184L18.7362 20.3416L20.1786 22.5399Z" fill="#000088"/>
<path d="M22.3579 18.4051C22.4811 18.3888 22.5678 18.2758 22.5516 18.1526C22.5353 18.0294 22.4223 17.9427 22.2991 17.9589C22.1759 17.9751 22.0892 18.0882 22.1054 18.2114C22.1216 18.3346 22.2347 18.4213 22.3579 18.4051Z" fill="#000088"/>
<path d="M19.1223 22.9766L18.5878 20.4022L18.1194 19.2336L18.298 20.4799L19.1223 22.9766Z" fill="#000088"/>
</g>
</g>
<defs>
<clipPath id="clip0_229_3778">
<rect width="50" height="37.5" fill="white" transform="translate(-7)"/>
</clipPath>
</defs>
</svg>
