<svg width="20" height="20" viewBox="0 0 20 20" fill="none" xmlns="http://www.w3.org/2000/svg">
<path fill-rule="evenodd" clip-rule="evenodd" d="M9.37496 1.66663C9.37496 1.50087 9.44081 1.34189 9.55802 1.22468C9.67523 1.10747 9.8342 1.04163 9.99996 1.04163C14.9475 1.04163 18.9583 5.05246 18.9583 9.99996C18.9583 14.9475 14.9475 18.9583 9.99996 18.9583C5.05246 18.9583 1.04163 14.9475 1.04163 9.99996C1.04163 9.8342 1.10747 9.67523 1.22468 9.55802C1.34189 9.44081 1.50087 9.37496 1.66663 9.37496C1.83239 9.37496 1.99136 9.44081 2.10857 9.55802C2.22578 9.67523 2.29163 9.8342 2.29163 9.99996C2.29163 11.5245 2.74371 13.0149 3.59071 14.2825C4.43772 15.5501 5.64159 16.5381 7.05011 17.1215C8.45862 17.705 10.0085 17.8576 11.5038 17.5602C12.9991 17.2628 14.3725 16.5286 15.4506 15.4506C16.5286 14.3725 17.2628 12.9991 17.5602 11.5038C17.8576 10.0085 17.705 8.45862 17.1215 7.05011C16.5381 5.64159 15.5501 4.43772 14.2825 3.59071C13.0149 2.74371 11.5245 2.29163 9.99996 2.29163C9.8342 2.29163 9.67523 2.22578 9.55802 2.10857C9.44081 1.99136 9.37496 1.83239 9.37496 1.66663ZM9.99996 6.87496C10.1657 6.87496 10.3247 6.94081 10.4419 7.05802C10.5591 7.17523 10.625 7.3342 10.625 7.49996V10.2083H13.3333C13.4991 10.2083 13.658 10.2741 13.7752 10.3914C13.8924 10.5086 13.9583 10.6675 13.9583 10.8333C13.9583 10.9991 13.8924 11.158 13.7752 11.2752C13.658 11.3924 13.4991 11.4583 13.3333 11.4583H9.99996C9.8342 11.4583 9.67523 11.3924 9.55802 11.2752C9.44081 11.158 9.37496 10.9991 9.37496 10.8333V7.49996C9.37496 7.3342 9.44081 7.17523 9.55802 7.05802C9.67523 6.94081 9.8342 6.87496 9.99996 6.87496ZM7.58329 1.99829C7.61287 2.07489 7.62706 2.15657 7.62506 2.23866C7.62306 2.32075 7.6049 2.40164 7.57162 2.47671C7.53834 2.55178 7.4906 2.61955 7.43112 2.67616C7.37164 2.73277 7.30158 2.7771 7.22496 2.80663C7.1071 2.85173 6.99039 2.8998 6.87496 2.95079C6.79945 2.9879 6.71723 3.00938 6.63322 3.01395C6.54921 3.01851 6.46515 3.00607 6.38606 2.97737C6.30698 2.94866 6.23451 2.90429 6.17298 2.8469C6.11146 2.78951 6.06216 2.72029 6.02803 2.64339C5.9939 2.56649 5.97565 2.4835 5.97437 2.39937C5.97309 2.31525 5.98881 2.23174 6.02058 2.15383C6.05236 2.07593 6.09953 2.00525 6.15928 1.94601C6.21903 1.88678 6.29012 1.84022 6.36829 1.80913C6.50163 1.74913 6.63718 1.69274 6.77496 1.63996C6.85156 1.61038 6.93324 1.59619 7.01533 1.59819C7.09742 1.60019 7.17831 1.61835 7.25338 1.65163C7.32844 1.68491 7.39622 1.73265 7.45283 1.79213C7.50944 1.85162 7.55377 1.92167 7.58329 1.99829ZM4.70663 3.53329C4.82084 3.65333 4.88272 3.8138 4.87865 3.97944C4.87459 4.14509 4.80492 4.30233 4.68496 4.41663C4.59355 4.5038 4.50435 4.59328 4.41746 4.68496C4.30308 4.80508 4.14568 4.87485 3.97986 4.87891C3.81405 4.88297 3.65341 4.821 3.53329 4.70663C3.41317 4.59225 3.34341 4.43484 3.33934 4.26903C3.33528 4.10322 3.39725 3.94258 3.51163 3.82246C3.61329 3.7169 3.7169 3.61329 3.82246 3.51163C3.94249 3.39741 4.10297 3.33554 4.26861 3.3396C4.43425 3.34366 4.59233 3.41333 4.70663 3.53329ZM2.63329 6.05079C2.70832 6.08411 2.77604 6.13188 2.8326 6.19137C2.88916 6.25086 2.93345 6.32091 2.96293 6.39753C2.99242 6.47414 3.00652 6.5558 3.00444 6.63787C3.00235 6.71993 2.98413 6.80078 2.95079 6.87579C2.89968 6.99079 2.85135 7.10718 2.80579 7.22496C2.7435 7.37587 2.62463 7.49642 2.47461 7.56082C2.32459 7.62522 2.15532 7.62836 2.00301 7.56957C1.8507 7.51078 1.72744 7.39473 1.6596 7.24623C1.59175 7.09773 1.5847 6.92859 1.63996 6.77496C1.69218 6.63774 1.74829 6.50218 1.80829 6.36829C1.84161 6.29327 1.88938 6.22554 1.94887 6.16898C2.00836 6.11242 2.07841 6.06814 2.15503 6.03865C2.23164 6.00917 2.3133 5.99506 2.39537 5.99715C2.47743 5.99923 2.55828 6.01746 2.63329 6.05079Z" fill="black"/>
</svg>
