<svg width="25" height="25" viewBox="0 0 25 25" fill="none" xmlns="http://www.w3.org/2000/svg">
<circle cx="12.3425" cy="12.3425" r="11.8425" stroke="#A1A4B7"/>
<path d="M17.5074 7.72244C18.1142 8.3292 18.5955 9.04954 18.9239 9.84231C19.2522 10.6351 19.4213 11.4848 19.4213 12.3429C19.4213 13.201 19.2522 14.0507 18.9239 14.8434C18.5955 15.6362 18.1142 16.3566 17.5074 16.9633M15.5827 9.64787C16.2974 10.3627 16.6989 11.3321 16.6989 12.3429C16.6989 13.3537 16.2974 14.3231 15.5827 15.0379M8.5308 9.62028L11.9576 6.19343C12.0338 6.11737 12.1308 6.06559 12.2363 6.04462C12.3419 6.02365 12.4513 6.03443 12.5508 6.0756C12.6502 6.11678 12.7352 6.1865 12.795 6.27595C12.8549 6.36541 12.8869 6.4706 12.887 6.57822V18.1075C12.8869 18.2152 12.8549 18.3203 12.795 18.4098C12.7352 18.4993 12.6502 18.569 12.5508 18.6102C12.4513 18.6513 12.3419 18.6621 12.2363 18.6411C12.1308 18.6202 12.0338 18.5684 11.9576 18.4923L8.5308 15.0655H6.9045C6.26559 15.0655 5.66735 14.6974 5.49746 14.0824C5.34173 13.5157 5.26309 12.9306 5.26368 12.3429C5.26368 11.7403 5.34499 11.1573 5.49746 10.6033C5.66735 9.98765 6.26559 9.62028 6.9045 9.62028H8.5308Z" stroke="#A1A4B7" stroke-width="1.5" stroke-linecap="round" stroke-linejoin="round"/>
</svg>
