<svg width="37" height="37" viewBox="0 0 37 37" fill="none" xmlns="http://www.w3.org/2000/svg">
<mask id="mask0_229_3755" style="mask-type:alpha" maskUnits="userSpaceOnUse" x="0" y="0" width="37" height="37">
<circle cx="18.5" cy="18.5" r="18.5" fill="#D9D9D9"/>
</mask>
<g mask="url(#mask0_229_3755)">
<mask id="mask1_229_3755" style="mask-type:luminance" maskUnits="userSpaceOnUse" x="-6" y="1" width="48" height="36">
<path d="M-6 1H41.998V36.9968H-6V1Z" fill="white"/>
</mask>
<g mask="url(#mask1_229_3755)">
<path fill-rule="evenodd" clip-rule="evenodd" d="M-6 1H42.0051V36.9968H-6V1Z" fill="white"/>
<path fill-rule="evenodd" clip-rule="evenodd" d="M-0.74115 11.9333L4.25201 4.44643L5.49982 5.27862L0.50667 12.7655L-0.74115 11.9333ZM1.13058 13.1816L6.12373 5.69472L7.37155 6.52691L2.3784 14.0138L1.13058 13.1816ZM3.00231 14.4299L7.99546 6.94301L9.24328 7.7752L4.25013 15.2621L3.00231 14.4299Z" fill="#000001"/>
<path fill-rule="evenodd" clip-rule="evenodd" d="M26.7111 30.2417L31.7042 22.7548L32.952 23.587L27.9589 31.0739L26.7111 30.2417ZM28.5828 31.49L33.5759 24.0031L34.8238 24.8353L29.8306 32.3222L28.5828 31.49ZM30.4545 32.7383L35.4477 25.2514L36.6955 26.0835L31.7023 33.5705L30.4545 32.7383Z" fill="#000001"/>
<path fill-rule="evenodd" clip-rule="evenodd" d="M28.5836 26.0819L34.8227 30.2429L28.5836 26.0819Z" fill="black"/>
<path d="M28.5836 26.0819L34.8227 30.2429" stroke="white" stroke-width="1.25"/>
<path fill-rule="evenodd" clip-rule="evenodd" d="M10.4915 14.0156C11.8157 12.03 13.8745 10.6517 16.215 10.184C18.5555 9.71636 20.9859 10.1976 22.9715 11.5219C24.9572 12.8461 26.3354 14.905 26.8031 17.2454C27.2708 19.5859 26.7896 22.0163 25.4653 24.0019L10.4915 14.0156Z" fill="#CD2E3A"/>
<path fill-rule="evenodd" clip-rule="evenodd" d="M10.4905 14.0154C9.16626 16.0011 8.68503 18.4314 9.15271 20.7719C9.62038 23.1124 10.9986 25.1712 12.9843 26.4955C14.97 27.8197 17.4003 28.301 19.7408 27.8333C22.0813 27.3656 24.1401 25.9874 25.4644 24.0017C26.1265 23.0089 26.3671 21.7937 26.1333 20.6235C25.8994 19.4532 25.2103 18.4238 24.2175 17.7617C23.2247 17.0995 22.0095 16.8589 20.8392 17.0928C19.669 17.3266 18.6396 18.0157 17.9774 19.0086L10.4905 14.0154Z" fill="#0047A0"/>
<path d="M17.9791 19.0085C19.3579 16.941 18.7997 14.1473 16.7322 12.7684C14.6648 11.3896 11.871 11.9479 10.4922 14.0153C9.11336 16.0828 9.67161 18.8765 11.7391 20.2554C13.8065 21.6342 16.6003 21.0759 17.9791 19.0085Z" fill="#CD2E3A"/>
<path fill-rule="evenodd" clip-rule="evenodd" d="M4.27411 33.5741L-0.719046 26.0872L0.528774 25.255L5.52193 32.7419L4.27411 33.5741ZM6.14584 32.3258L1.15268 24.8389L2.4005 24.0067L7.39366 31.4936L6.14584 32.3258ZM8.01757 31.0775L3.02441 23.5906L4.27223 22.7584L9.26539 30.2453L8.01757 31.0775Z" fill="#000001"/>
<path fill-rule="evenodd" clip-rule="evenodd" d="M31.7261 15.2657L26.7329 7.77883L27.9807 6.94663L32.9739 14.4336L31.7261 15.2657ZM33.5978 14.0175L28.6046 6.53054L29.8525 5.69835L34.8456 13.1853L33.5978 14.0175ZM35.4695 12.7692L30.4764 5.28225L31.7242 4.45006L36.7174 11.937L35.4695 12.7692Z" fill="#000001"/>
<path fill-rule="evenodd" clip-rule="evenodd" d="M3.33667 28.7903L5.2084 27.542L3.33667 28.7903ZM28.605 11.9384L30.7887 10.4821L28.605 11.9384ZM32.6604 9.23376L34.5322 7.98547L32.6604 9.23376Z" fill="black"/>
<path d="M3.33667 28.7903L5.2084 27.542M28.605 11.9384L30.7887 10.4821M32.6604 9.23376L34.5322 7.98547" stroke="white" stroke-width="1.25"/>
</g>
</g>
</svg>
