<svg width="20" height="27" viewBox="0 0 20 27" fill="none" xmlns="http://www.w3.org/2000/svg">
<path d="M10.064 27H5.53043L7.88735 18H3.01678C2.54608 17.9998 2.08194 17.8945 1.66147 17.6925C1.24099 17.4906 0.875835 17.1975 0.595175 16.8368C0.314514 16.476 0.126131 16.0576 0.0450792 15.615C-0.0359723 15.1723 -0.00744505 14.7177 0.128381 14.2875L4.65484 0H15.8113L12.2759 9H17.0169C17.5563 9.00033 18.0855 9.14018 18.5483 9.40468C19.0111 9.66919 19.3902 10.0485 19.6452 10.5022C19.9003 10.9559 20.0218 11.4672 19.9968 11.9815C19.9718 12.4959 19.8013 12.9942 19.5034 13.4235L10.064 27ZM8.54964 24.75H8.79947L17.5389 12.1793C17.6015 12.0891 17.6374 11.9844 17.6427 11.8764C17.6479 11.7683 17.6225 11.6609 17.5689 11.5656C17.5154 11.4703 17.4357 11.3906 17.3385 11.335C17.2413 11.2795 17.1302 11.2501 17.0169 11.25H8.8749L12.4103 2.25H6.40367L2.38395 14.9355C2.35394 15.0298 2.3475 15.1296 2.36515 15.2267C2.38279 15.3238 2.42403 15.4157 2.48555 15.4949C2.54707 15.574 2.62716 15.6384 2.71942 15.6827C2.81167 15.727 2.91351 15.75 3.01678 15.75H10.9124L8.54964 24.75Z" fill="#727590"/>
</svg>
