<svg width="32" height="32" viewBox="0 0 32 32" fill="none" xmlns="http://www.w3.org/2000/svg">
<g clip-path="url(#clip0_222_1249)">
<mask id="mask0_222_1249" style="mask-type:luminance" maskUnits="userSpaceOnUse" x="0" y="0" width="32" height="32">
<path d="M32 0H0V32H32V0Z" fill="white"/>
</mask>
<g mask="url(#mask0_222_1249)">
<path d="M28.3334 24.627L26.1334 25.147C25.6401 25.267 25.2534 25.6403 25.1467 26.1336L24.6801 28.0936C24.4267 29.1603 23.0667 29.4936 22.3601 28.6536L18.3734 24.067C18.0534 23.6936 18.2267 23.107 18.7067 22.987C21.0667 22.4136 23.1867 21.0936 24.7467 19.2136C25.0001 18.907 25.4534 18.867 25.7334 19.147L28.6934 22.107C29.7067 23.1203 29.3467 24.387 28.3334 24.627Z" fill="#7429FF"/>
<path d="M3.59997 24.627L5.79997 25.147C6.29331 25.267 6.67997 25.6403 6.78664 26.1336L7.25331 28.0936C7.50664 29.1603 8.86664 29.4936 9.57331 28.6536L13.5599 24.067C13.8799 23.6936 13.7066 23.107 13.2266 22.987C10.8666 22.4136 8.74664 21.0936 7.18664 19.2136C6.93331 18.907 6.47997 18.867 6.19997 19.147L3.23997 22.107C2.22664 23.1203 2.58664 24.387 3.59997 24.627Z" fill="#7429FF"/>
<path d="M16.0001 2.66675C10.8401 2.66675 6.66675 6.84008 6.66675 12.0001C6.66675 13.9334 7.24008 15.7067 8.22675 17.1867C9.66675 19.3201 11.9467 20.8267 14.6001 21.2134C15.0534 21.2934 15.5201 21.3334 16.0001 21.3334C16.4801 21.3334 16.9467 21.2934 17.4001 21.2134C20.0534 20.8267 22.3334 19.3201 23.7734 17.1867C24.7601 15.7067 25.3334 13.9334 25.3334 12.0001C25.3334 6.84008 21.1601 2.66675 16.0001 2.66675ZM20.0801 11.7067L18.9734 12.8134C18.7867 13.0001 18.6801 13.3601 18.7467 13.6267L19.0667 15.0001C19.3201 16.0801 18.7467 16.5067 17.7867 15.9334L16.4534 15.1467C16.2134 15.0001 15.8134 15.0001 15.5734 15.1467L14.2401 15.9334C13.2801 16.4934 12.7067 16.0801 12.9601 15.0001L13.2801 13.6267C13.3334 13.3734 13.2401 13.0001 13.0534 12.8134L11.9201 11.7067C11.2667 11.0534 11.4801 10.4001 12.3867 10.2534L13.8134 10.0134C14.0534 9.97341 14.3334 9.76008 14.4401 9.54675L15.2267 7.97341C15.6534 7.12008 16.3467 7.12008 16.7734 7.97341L17.5601 9.54675C17.6667 9.76008 17.9467 9.97341 18.2001 10.0134L19.6267 10.2534C20.5201 10.4001 20.7334 11.0534 20.0801 11.7067Z" fill="#7429FF"/>
</g>
</g>
<defs>
<clipPath id="clip0_222_1249">
<rect width="32" height="32" fill="white"/>
</clipPath>
</defs>
</svg>
