<svg width="36" height="36" viewBox="0 0 36 36" fill="none" xmlns="http://www.w3.org/2000/svg">
<g clip-path="url(#clip0_126_7683)">
<mask id="mask0_126_7683" style="mask-type:luminance" maskUnits="userSpaceOnUse" x="0" y="0" width="36" height="36">
<path d="M36 0H0V36H36V0Z" fill="white"/>
</mask>
<g mask="url(#mask0_126_7683)">
<path d="M26.4299 8.58L10.5148 24.495C9.41982 23.01 8.81982 21.195 8.81982 19.23V12.165C8.81982 9.405 10.0498 6.93 11.9998 5.25V11.46C11.9998 12.045 12.4798 12.525 13.0498 12.525C13.6348 12.525 14.1148 12.045 14.1148 11.46V3.855C14.8048 3.51 15.5399 3.27 16.3049 3.135V8.625C16.3049 9.225 16.7849 9.69 17.3699 9.69C17.9549 9.69 18.4349 9.225 18.4349 8.625V3C22.0199 3.165 25.1099 5.415 26.4299 8.58Z" fill="white"/>
<path d="M27.18 13.3198V19.2299C27.18 24.2849 23.055 28.4099 18 28.4099C17.73 28.4099 17.46 28.3949 17.19 28.3649C17.07 28.3649 16.95 28.3499 16.845 28.3349C16.65 28.3049 16.455 28.2749 16.275 28.2449C16.2 28.2449 16.14 28.2149 16.05 28.1999C15.84 28.1549 15.63 28.0949 15.435 28.0349C15.105 27.9449 14.79 27.8249 14.49 27.7049C14.295 27.6299 14.115 27.5549 13.935 27.4499C13.89 27.4349 13.86 27.4049 13.815 27.3899C13.665 27.3149 13.515 27.2399 13.365 27.1349L27.18 13.3198Z" fill="white"/>
<path d="M32.625 16.5V19.5C32.625 27.57 26.07 34.125 18 34.125C14.82 34.125 11.775 33.105 9.27002 31.23L10.89 29.61C12.96 31.08 15.42 31.875 18 31.875C24.825 31.875 30.375 26.325 30.375 19.5V16.5C30.375 15.885 30.885 15.375 31.5 15.375C32.115 15.375 32.625 15.885 32.625 16.5Z" fill="white"/>
<path d="M32.6549 3.34482C32.2049 2.89482 31.4699 2.89482 31.0199 3.34482L3.34482 31.0349C2.89482 31.4849 2.89482 32.2199 3.34482 32.6699C3.56982 32.8799 3.85482 32.9999 4.15482 32.9999C4.45482 32.9999 4.73982 32.8799 4.96482 32.6549L32.6549 4.96482C33.1199 4.51482 33.1199 3.79482 32.6549 3.34482Z" fill="white"/>
</g>
</g>
<defs>
<clipPath id="clip0_126_7683">
<rect width="36" height="36" fill="white"/>
</clipPath>
</defs>
</svg>
