<svg width="36" height="36" viewBox="0 0 36 36" fill="none" xmlns="http://www.w3.org/2000/svg">
<g clip-path="url(#clip0_71_5128)">
<mask id="mask0_71_5128" style="mask-type:luminance" maskUnits="userSpaceOnUse" x="0" y="0" width="36" height="36">
<path d="M36 0H0V36H36V0Z" fill="white"/>
</mask>
<g mask="url(#mask0_71_5128)">
<path d="M18.0001 32.8953C10.4401 32.8953 4.27515 26.7453 4.27515 19.1703V16.3503C4.27515 15.7653 4.75515 15.3003 5.32515 15.3003C5.89515 15.3003 6.37515 15.7803 6.37515 16.3503V19.1703C6.37515 25.5753 11.5801 30.7803 17.9851 30.7803C24.3901 30.7803 29.5951 25.5753 29.5951 19.1703V16.3503C29.5951 15.7653 30.0751 15.3003 30.6451 15.3003C31.2151 15.3003 31.6951 15.7803 31.6951 16.3503V19.1703C31.7251 26.7453 25.5601 32.8953 18.0001 32.8953Z" fill="white"/>
<path d="M17.9999 3C12.9599 3 8.84985 7.11 8.84985 12.15V19.185C8.84985 24.225 12.9599 28.335 17.9999 28.335C23.0399 28.335 27.1499 24.225 27.1499 19.185V12.15C27.1499 7.11 23.0399 3 17.9999 3ZM21.2699 15.885C21.1649 16.29 20.7899 16.56 20.3849 16.56C20.3099 16.56 20.2199 16.545 20.1449 16.53C18.6149 16.11 16.9949 16.11 15.4649 16.53C14.9699 16.665 14.4749 16.38 14.3399 15.885C14.2049 15.405 14.4899 14.895 14.9849 14.76C16.8299 14.25 18.7799 14.25 20.6249 14.76C21.1199 14.895 21.4049 15.39 21.2699 15.885ZM22.5449 11.73C22.4099 12.105 22.0649 12.33 21.6899 12.33C21.5849 12.33 21.4799 12.315 21.3749 12.27C19.0799 11.43 16.5599 11.43 14.2649 12.27C13.7849 12.45 13.2599 12.21 13.0799 11.73C12.9149 11.265 13.1549 10.74 13.6349 10.56C16.3349 9.585 19.3049 9.585 21.9899 10.56C22.4699 10.74 22.7099 11.265 22.5449 11.73Z" fill="white"/>
</g>
</g>
<defs>
<clipPath id="clip0_71_5128">
<rect width="36" height="36" fill="white"/>
</clipPath>
</defs>
</svg>
