<svg width="22" height="22" viewBox="0 0 22 22" fill="none" xmlns="http://www.w3.org/2000/svg">
<g clip-path="url(#clip0_45_3344)">
<path d="M13.0488 17.4167C13.8417 17.4167 14.2606 18.3554 13.7317 18.9457C13.3881 19.3302 12.9671 19.6378 12.4963 19.8482C12.0256 20.0586 11.5157 20.1672 11 20.1667C10.4844 20.1672 9.97443 20.0586 9.50367 19.8482C9.0329 19.6378 8.61193 19.3302 8.26833 18.9457C7.76233 18.3811 8.1235 17.4983 8.8495 17.4232L8.95033 17.4177L13.0488 17.4167Z" fill="white"/>
<path d="M11 1.83325C12.2448 1.83325 13.2972 2.661 13.6354 3.79584L13.6776 3.95259L13.6849 3.992C14.6954 4.56208 15.5565 5.36343 16.1977 6.33042C16.8389 7.29741 17.2418 8.40252 17.3736 9.55525L17.3993 9.81834L17.4167 10.0833V12.77L17.4359 12.8947C17.5614 13.5701 17.9352 14.1741 18.4837 14.5878L18.6368 14.695L18.7853 14.7858C19.5736 15.2322 19.2986 16.4046 18.4397 16.4944L18.3333 16.4999H3.66667C2.72434 16.4999 2.39525 15.2496 3.21475 14.7858C3.56403 14.5881 3.86581 14.3164 4.09891 13.9897C4.33202 13.663 4.49079 13.2892 4.56409 12.8947L4.58334 12.7636L4.58425 10.0411C4.64014 8.84381 4.98865 7.67848 5.59926 6.6471C6.20988 5.61572 7.06399 4.74972 8.08684 4.12492L8.31417 3.99109L8.32334 3.95167C8.453 3.40353 8.7477 2.90835 9.16767 2.53298C9.58763 2.1576 10.1126 1.92009 10.6718 1.8525L10.8387 1.83692L11 1.83325Z" fill="white"/>
</g>
<defs>
<clipPath id="clip0_45_3344">
<rect width="22" height="22" fill="white"/>
</clipPath>
</defs>
</svg>
