<svg width="37" height="37" viewBox="0 0 37 37" fill="none" xmlns="http://www.w3.org/2000/svg">
<mask id="mask0_229_3884" style="mask-type:alpha" maskUnits="userSpaceOnUse" x="0" y="0" width="37" height="37">
<circle cx="18.5" cy="18.5" r="18.5" fill="#D9D9D9"/>
</mask>
<g mask="url(#mask0_229_3884)">
<g clip-path="url(#clip0_229_3884)">
<path d="M15.3788 -1H45.9995V36.9487H15.3788V-1Z" fill="#FF0000"/>
<path d="M-5.03448 -1H15.3793V36.9487H-5.03448V-1Z" fill="#006600"/>
<path fill-rule="evenodd" clip-rule="evenodd" d="M22.0372 23.2084C19.4615 23.1294 7.68375 15.8401 7.604 14.67L8.24991 13.6027C9.42211 15.2866 21.4631 22.3783 22.6512 22.1253L22.0372 23.2084Z" fill="#FFFF00" stroke="black" stroke-width="0.075" stroke-linecap="round" stroke-linejoin="round"/>
<path fill-rule="evenodd" clip-rule="evenodd" d="M8.11478 13.4527C7.88353 14.0693 11.1928 16.0933 15.1639 18.4967C19.135 20.9001 22.5719 22.3706 22.8191 22.165L22.9387 21.9437C22.8909 22.028 22.7766 22.0438 22.5958 21.9911C21.5193 21.6828 18.7204 20.4099 15.2516 18.3227C11.7749 16.2356 8.76069 14.3144 8.29022 13.5001C8.25248 13.4241 8.23596 13.3395 8.24237 13.255H8.22642L8.13073 13.4289L8.11478 13.4527ZM22.0935 23.2403C22.0562 23.3088 21.9632 23.3299 21.8144 23.3035C20.8575 23.2007 17.9389 21.7935 14.4861 19.7458C10.4672 17.3582 7.14991 15.192 7.51672 14.6227L7.61241 14.4488L7.62836 14.4567C7.3094 15.4212 14.1751 19.311 14.5818 19.564C18.5529 21.999 21.9021 23.43 22.1971 23.0584L22.0935 23.2403Z" fill="#FFFF00" stroke="black" stroke-width="0.075" stroke-linecap="round" stroke-linejoin="round"/>
<path fill-rule="evenodd" clip-rule="evenodd" d="M15.3948 15.3819C17.9625 15.3582 21.1362 15.0341 22.9703 14.3067L22.5716 13.6742C21.4951 14.2672 18.3054 14.6625 15.3709 14.7178C11.9101 14.6862 9.46208 14.362 8.23406 13.5477L7.86725 14.2276C10.116 15.1764 12.4285 15.374 15.3948 15.3819Z" fill="#FFFF00" stroke="black" stroke-width="0.075" stroke-linecap="round" stroke-linejoin="round"/>
<path fill-rule="evenodd" clip-rule="evenodd" d="M23.0737 14.322C23.0099 14.4248 21.8138 14.828 20.0595 15.1284C18.513 15.3608 16.9507 15.4745 15.3866 15.4684C13.888 15.474 12.3908 15.3789 10.9052 15.1838C9.06314 14.8992 8.11421 14.5039 7.75538 14.3615L7.84309 14.1876C8.85581 14.5829 9.81271 14.8201 10.9291 14.994C12.4039 15.1913 13.8905 15.2891 15.3787 15.2865C16.9347 15.2881 18.4886 15.1745 20.0276 14.9466C21.8218 14.6541 22.8026 14.2825 22.9461 14.1165L23.0737 14.322ZM22.7228 13.6816C22.5315 13.8397 21.5586 14.1797 19.8521 14.4485C18.3786 14.6599 16.8915 14.7656 15.4026 14.7647C13.6483 14.7647 12.2049 14.6383 11.1125 14.4801C9.37413 14.2588 8.44913 13.8477 8.11421 13.737L8.21788 13.563C8.48103 13.6974 9.36615 14.0532 11.1284 14.2983C12.5451 14.4864 13.9733 14.5763 15.4026 14.5671C16.8809 14.5676 18.3573 14.4619 19.8203 14.2509C21.5347 14.0137 22.4597 13.5868 22.6032 13.4761L22.7228 13.6816ZM6.94999 18.4489C8.52887 19.2949 12.0455 19.7139 15.3707 19.7455C18.4009 19.7534 22.3401 19.287 23.8153 18.5122L23.7754 17.6662C23.3129 18.3778 19.0866 19.0656 15.3388 19.0419C11.5909 19.0182 8.10624 18.441 6.94202 17.6979V18.4489" fill="#FFFF00"/>
<path d="M6.94999 18.4489C8.52887 19.2949 12.0455 19.7139 15.3707 19.7455C18.4009 19.7534 22.3401 19.287 23.8153 18.5122L23.7754 17.6662C23.3129 18.3778 19.0866 19.0656 15.3388 19.0419C11.5909 19.0182 8.10624 18.441 6.94202 17.6979V18.4489M23.0737 14.322C23.0099 14.4248 21.8138 14.828 20.0595 15.1284C18.513 15.3608 16.9507 15.4745 15.3866 15.4684C13.888 15.474 12.3908 15.3789 10.9052 15.1838C9.06314 14.8992 8.11421 14.5039 7.75538 14.3615L7.84309 14.1876C8.85581 14.5829 9.81271 14.8201 10.9291 14.994C12.4039 15.1913 13.8905 15.2891 15.3787 15.2865C16.9347 15.2881 18.4886 15.1745 20.0276 14.9466C21.8218 14.6541 22.8026 14.2825 22.9461 14.1165L23.0737 14.322ZM22.7228 13.6816C22.5315 13.8397 21.5586 14.1797 19.8521 14.4485C18.3786 14.6599 16.8915 14.7656 15.4026 14.7647C13.6483 14.7647 12.2049 14.6383 11.1125 14.4801C9.37413 14.2588 8.44913 13.8477 8.11421 13.737L8.21788 13.563C8.48103 13.6974 9.36615 14.0532 11.1284 14.2983C12.5451 14.4864 13.9733 14.5763 15.4026 14.5671C16.8809 14.5676 18.3573 14.4619 19.8203 14.2509C21.5347 14.0137 22.4597 13.5868 22.6032 13.4761L22.7228 13.6816Z" stroke="black" stroke-width="0.075" stroke-linecap="round" stroke-linejoin="round"/>
<path fill-rule="evenodd" clip-rule="evenodd" d="M23.8962 18.3302V18.5278C23.6729 18.7967 22.2854 19.192 20.547 19.4766C18.82 19.7227 17.0767 19.839 15.332 19.8244C13.6776 19.8384 12.0246 19.7247 10.388 19.4845C9.1668 19.3446 7.97349 19.0248 6.84747 18.5358V18.3065C7.62096 18.8125 9.71019 19.1919 10.4119 19.3026C11.6718 19.4924 13.2906 19.6347 15.332 19.6347C17.477 19.6347 19.1914 19.4845 20.5151 19.2868C21.7671 19.105 23.5453 18.6385 23.8962 18.3302ZM23.8962 17.6187V17.8163C23.6729 18.0772 22.2854 18.4725 20.547 18.7571C18.8202 19.0059 17.0769 19.1248 15.332 19.1129C13.6777 19.1225 12.0251 19.0089 10.388 18.7729C9.1668 18.633 7.97349 18.3133 6.84747 17.8242V17.587C7.62096 18.1009 9.71816 18.4725 10.4119 18.5832C12.0409 18.8198 13.6856 18.9334 15.332 18.9231C17.477 18.9231 19.1994 18.765 20.5151 18.5674C21.7671 18.3934 23.5453 17.927 23.8962 17.6187ZM15.3639 23.058C11.7276 23.0422 8.60976 22.0776 7.9479 21.9195L8.42635 22.6627C10.6631 23.4477 13.0233 23.8306 15.3958 23.7932C18.1628 23.7142 20.5789 23.5007 22.2774 22.6785L22.7718 21.9037C21.6156 22.4492 17.6684 23.058 15.3559 23.058" fill="#FFFF00"/>
<path d="M15.3639 23.058C11.7276 23.0422 8.60976 22.0776 7.9479 21.9195L8.42635 22.6627C10.6631 23.4477 13.0233 23.8306 15.3958 23.7932C18.1628 23.7142 20.5789 23.5007 22.2774 22.6785L22.7718 21.9037C21.6156 22.4492 17.6684 23.058 15.3559 23.058M23.8962 18.3302V18.5278C23.6729 18.7967 22.2854 19.192 20.547 19.4766C18.82 19.7227 17.0767 19.839 15.332 19.8244C13.6776 19.8384 12.0246 19.7247 10.388 19.4845C9.1668 19.3446 7.97349 19.0248 6.84747 18.5358V18.3065C7.62096 18.8125 9.71019 19.1919 10.4119 19.3026C11.6718 19.4924 13.2906 19.6347 15.332 19.6347C17.477 19.6347 19.1914 19.4845 20.5151 19.2868C21.7671 19.105 23.5453 18.6385 23.8962 18.3302ZM23.8962 17.6187V17.8163C23.6729 18.0772 22.2854 18.4725 20.547 18.7571C18.8202 19.0059 17.0769 19.1248 15.332 19.1129C13.6777 19.1225 12.0251 19.0089 10.388 18.7729C9.1668 18.633 7.97349 18.3133 6.84747 17.8242V17.587C7.62096 18.1009 9.71816 18.4725 10.4119 18.5832C12.0409 18.8198 13.6856 18.9334 15.332 18.9231C17.477 18.9231 19.1994 18.765 20.5151 18.5674C21.7671 18.3934 23.5453 17.927 23.8962 17.6187Z" stroke="black" stroke-width="0.075" stroke-linecap="round" stroke-linejoin="round"/>
<path fill-rule="evenodd" clip-rule="evenodd" d="M22.4703 22.504L22.2471 22.8203C21.4497 23.1049 20.1738 23.4053 19.6475 23.4844C18.2352 23.7451 16.8019 23.8774 15.3654 23.8797C12.1438 23.8323 9.5044 23.2077 8.26841 22.6701L8.16474 22.504L8.18069 22.4724L8.34815 22.5436C10.6178 23.2875 12.9909 23.6743 15.3813 23.6899C16.8805 23.6899 18.3716 23.5239 19.5757 23.3105C21.4257 22.9389 22.1753 22.6622 22.4066 22.5357L22.4624 22.504H22.4703ZM22.893 21.8083L22.7335 22.085C22.3029 22.2432 21.1387 22.5752 19.4402 22.8124C18.3238 22.9626 17.63 23.1128 15.4053 23.1523C12.862 23.1274 10.3343 22.755 7.89362 22.0455L7.80591 21.8479C10.2857 22.5274 12.841 22.8991 15.4132 22.9547C17.4466 22.9152 18.3158 22.7649 19.4242 22.6147C21.4018 22.3143 22.3986 21.9823 22.6936 21.8953V21.8795L22.901 21.8004L22.893 21.8083Z" fill="#FFFF00" stroke="black" stroke-width="0.075" stroke-linecap="round" stroke-linejoin="round"/>
<path fill-rule="evenodd" clip-rule="evenodd" d="M22.9382 17.7846C22.9461 20.1564 21.7181 22.291 20.7373 23.224C19.29 24.6268 17.3546 25.4249 15.3308 25.4534C12.9147 25.493 10.642 23.9355 10.028 23.2477C8.65442 21.8034 7.87263 19.9037 7.83513 17.919C7.97867 15.3259 9.00733 13.5233 10.4905 12.2821C11.9327 11.1085 13.7442 10.4734 15.6099 10.4874C16.6995 10.5388 17.7661 10.8158 18.7412 11.3005C19.7163 11.7853 20.5782 12.467 21.2716 13.3019C22.2683 14.5037 22.7069 15.8081 22.9382 17.7846ZM15.3468 9.6731C17.5775 9.67303 19.7179 10.5473 21.3012 12.1052C22.8846 13.6632 23.7825 15.7786 23.7994 17.9902C23.7994 19.0876 23.5813 20.1743 23.1578 21.1881C22.7342 22.202 22.1133 23.1232 21.3307 23.8992C20.548 24.6752 19.6188 25.2907 18.5962 25.7107C17.5736 26.1307 16.4776 26.3468 15.3707 26.3468C14.2638 26.3468 13.1678 26.1307 12.1452 25.7107C11.1226 25.2907 10.1934 24.6752 9.41073 23.8992C8.62805 23.1232 8.0072 22.202 7.58362 21.1881C7.16004 20.1743 6.94203 19.0876 6.94203 17.9902C6.93406 13.4047 10.7138 9.6731 15.3468 9.6731Z" fill="#FFFF00" stroke="black" stroke-width="0.075" stroke-linecap="round" stroke-linejoin="round"/>
<path fill-rule="evenodd" clip-rule="evenodd" d="M15.3726 9.63342C20.0136 9.63342 23.7933 13.3809 23.7933 17.9821C23.7933 22.5834 20.0136 26.3309 15.3806 26.3309C10.7476 26.3309 6.9599 22.5834 6.9599 17.9821C6.9599 13.3809 10.7396 9.63342 15.3806 9.63342H15.3726ZM7.13533 17.9742C7.13533 22.4648 10.8593 26.1411 15.3726 26.1411C19.886 26.1411 23.6099 22.4648 23.6099 17.9742C23.6099 13.4836 19.886 9.80735 15.3726 9.80735C10.8593 9.80735 7.13533 13.4836 7.13533 17.9742Z" fill="#FFFF00" stroke="black" stroke-width="0.075" stroke-linecap="round" stroke-linejoin="round"/>
<path fill-rule="evenodd" clip-rule="evenodd" d="M15.3789 10.33C17.422 10.3362 19.3797 11.1437 20.8244 12.5761C22.2691 14.0084 23.0836 15.9494 23.0899 17.975C23.0857 20.0021 22.2722 21.945 20.8272 23.3791C19.3823 24.8132 17.4234 25.6218 15.3789 25.628C11.1526 25.628 7.66791 22.181 7.66791 17.975C7.67422 15.9494 8.48865 14.0084 9.93337 12.5761C11.3781 11.1437 13.3358 10.3362 15.3789 10.33ZM7.85131 17.975C7.85131 22.0862 11.2483 25.4383 15.3789 25.4383C19.5095 25.4383 22.9065 22.0782 22.9065 17.975C22.9065 13.8718 19.5095 10.5118 15.3789 10.5118C13.3863 10.5242 11.4789 11.3145 10.07 12.7115C8.66097 14.1084 7.86386 15.9995 7.85131 17.975Z" fill="#FFFF00" stroke="black" stroke-width="0.075" stroke-linecap="round" stroke-linejoin="round"/>
<path fill-rule="evenodd" clip-rule="evenodd" d="M15.7236 9.59387H14.998V26.3783H15.7157L15.7236 9.59387Z" fill="#FFFF00" stroke="black" stroke-width="0.075" stroke-linecap="round" stroke-linejoin="round"/>
<path fill-rule="evenodd" clip-rule="evenodd" d="M15.6441 9.49927H15.8275V26.4734H15.652V9.49927H15.6441ZM14.9264 9.49927H15.1178V26.4734H14.9344L14.9264 9.49927Z" fill="#FFFF00" stroke="black" stroke-width="0.075" stroke-linecap="round" stroke-linejoin="round"/>
<path fill-rule="evenodd" clip-rule="evenodd" d="M23.8003 18.306V17.6893L23.2899 17.215L20.3953 16.456L16.2328 16.037L11.2091 16.29L7.63668 17.128L6.91901 17.6577V18.2823L8.74508 17.468L13.083 16.796H17.2535L20.3156 17.128L22.4367 17.634L23.8003 18.306Z" fill="#FFFF00" stroke="black" stroke-width="0.075" stroke-linecap="round" stroke-linejoin="round"/>
<path fill-rule="evenodd" clip-rule="evenodd" d="M15.3798 16.6933C17.3654 16.6933 19.2871 16.8752 20.8261 17.1677C22.405 17.4839 23.5134 17.8792 23.8962 18.3141V18.5354C23.4337 17.982 21.9425 17.5867 20.7863 17.3495C19.2712 17.0649 17.3574 16.8752 15.3718 16.8752C13.2906 16.8752 11.3449 17.0807 9.84575 17.3653C8.64963 17.6025 7.04683 18.0769 6.84747 18.5354V18.3062C6.95114 17.9899 8.14726 17.5156 9.82183 17.1756C11.3289 16.8831 13.2746 16.6933 15.3718 16.6933H15.3798ZM15.3798 15.9739C17.2059 15.9703 19.0286 16.129 20.8261 16.4482C22.405 16.7645 23.5134 17.1598 23.8962 17.6025V17.816C23.4337 17.2705 21.9425 16.8673 20.7863 16.638C19.2712 16.3455 17.3574 16.1636 15.3718 16.1636C13.5211 16.1578 11.6739 16.3219 9.85372 16.6538C8.69747 16.8673 7.03088 17.3574 6.84747 17.816V17.5946C6.95911 17.2784 8.17118 16.7803 9.82183 16.4641C11.3369 16.1715 13.2746 15.9739 15.3798 15.9739ZM15.332 12.3213C18.4658 12.3055 21.2009 12.7562 22.4529 13.3886L22.9074 14.1792C21.8229 13.5942 18.8725 12.9933 15.3399 13.0724C12.4613 13.0961 9.38325 13.3886 7.84424 14.2109L8.38648 13.3096C9.65437 12.6534 12.6367 12.3213 15.332 12.3213Z" fill="#FFFF00" stroke="black" stroke-width="0.075" stroke-linecap="round" stroke-linejoin="round"/>
<path fill-rule="evenodd" clip-rule="evenodd" d="M15.3794 12.9704C17.0156 12.943 18.6512 13.0568 20.2675 13.3103C21.5434 13.5475 22.7635 13.8954 22.9389 14.0851L23.0744 14.3223C22.6518 14.0535 21.5913 13.7452 20.2357 13.4922C18.8801 13.2392 17.1497 13.1522 15.3714 13.1601C13.354 13.1522 11.7831 13.255 10.4434 13.4922C9.51996 13.6206 8.62336 13.8956 7.78802 14.3065L7.92359 14.0614C8.40203 13.8242 9.14363 13.5317 10.4035 13.3024C11.799 13.0494 13.3859 12.9783 15.3794 12.9704ZM15.3794 12.2588C17.0859 12.243 18.7764 12.3379 20.0921 12.5751C20.9446 12.7006 21.7695 12.9679 22.5322 13.3657L22.7316 13.6819C22.3966 13.3103 21.1367 12.9546 20.0124 12.7648C18.7046 12.5356 17.0859 12.4486 15.3794 12.4328C13.7909 12.4187 12.2039 12.5351 10.6348 12.7806C9.81423 12.8936 9.01729 13.1365 8.27445 13.5001L8.44988 13.2392C8.91238 13.002 9.66195 12.7806 10.6029 12.5988C12.1824 12.35 13.7802 12.2337 15.3794 12.2509V12.2588ZM19.5579 21.4535C18.1757 21.2161 16.7739 21.1102 15.3714 21.1373C10.1484 21.2005 8.46583 22.2046 8.2585 22.505L7.85979 21.8725C9.19945 20.9238 12.0382 20.3862 15.4033 20.4336C17.1523 20.46 18.6568 20.5918 19.9167 20.8289L19.5579 21.4614" fill="#FFFF00"/>
<path d="M19.5579 21.4535C18.1757 21.2161 16.7739 21.1102 15.3714 21.1373C10.1484 21.2005 8.46583 22.2046 8.2585 22.505L7.85979 21.8725C9.19945 20.9238 12.0382 20.3862 15.4033 20.4336C17.1523 20.46 18.6568 20.5918 19.9167 20.8289L19.5579 21.4614M15.3794 12.9704C17.0156 12.943 18.6512 13.0568 20.2675 13.3103C21.5434 13.5475 22.7635 13.8954 22.9389 14.0851L23.0744 14.3223C22.6518 14.0535 21.5913 13.7452 20.2357 13.4922C18.8801 13.2392 17.1497 13.1522 15.3714 13.1601C13.354 13.1522 11.7831 13.255 10.4434 13.4922C9.51996 13.6206 8.62336 13.8956 7.78802 14.3065L7.92359 14.0614C8.40203 13.8242 9.14363 13.5317 10.4035 13.3024C11.799 13.0494 13.3859 12.9783 15.3794 12.9704ZM15.3794 12.2588C17.0859 12.243 18.7764 12.3379 20.0921 12.5751C20.9446 12.7006 21.7695 12.9679 22.5322 13.3657L22.7316 13.6819C22.3966 13.3103 21.1367 12.9546 20.0124 12.7648C18.7046 12.5356 17.0859 12.4486 15.3794 12.4328C13.7909 12.4187 12.2039 12.5351 10.6348 12.7806C9.81423 12.8936 9.01729 13.1365 8.27445 13.5001L8.44988 13.2392C8.91238 13.002 9.66195 12.7806 10.6029 12.5988C12.1824 12.35 13.7802 12.2337 15.3794 12.2509V12.2588Z" stroke="black" stroke-width="0.075" stroke-linecap="round" stroke-linejoin="round"/>
<path fill-rule="evenodd" clip-rule="evenodd" d="M15.3472 21.0505C16.7985 21.0742 18.2179 21.1295 19.5974 21.3825L19.5017 21.5565C18.2258 21.3193 16.8543 21.2402 15.3551 21.2402C13.4174 21.2244 11.4717 21.4063 9.77324 21.8885C9.23897 22.0387 8.35384 22.3787 8.25815 22.6633L8.16247 22.5052C8.19436 22.3313 8.72066 21.9834 9.7254 21.7146C11.6711 21.1612 13.4892 21.0584 15.3472 21.0505ZM15.411 20.3231C16.9428 20.3216 18.4717 20.4539 19.9801 20.7184L19.8765 20.9003C18.4035 20.6324 16.9084 20.5027 15.411 20.5129C13.4812 20.5129 11.4319 20.6552 9.56591 21.1928C8.96785 21.3667 7.92324 21.7462 7.89134 22.0387L7.79565 21.8648C7.8116 21.596 8.71268 21.2402 9.52604 21.011C11.4 20.4654 13.4573 20.331 15.411 20.3231Z" fill="#FFFF00" stroke="black" stroke-width="0.075" stroke-linecap="round" stroke-linejoin="round"/>
<path fill-rule="evenodd" clip-rule="evenodd" d="M22.8278 21.9674L22.2058 22.9398L20.3957 21.3507L15.7228 18.2279L10.4439 15.358L7.7088 14.433L8.29091 13.3578L8.49027 13.255L10.1888 13.674L15.8026 16.5439L19.0401 18.5678L21.7592 20.5048L22.8676 21.7697L22.8278 21.9674Z" fill="#FFFF00" stroke="black" stroke-width="0.075" stroke-linecap="round" stroke-linejoin="round"/>
<path fill-rule="evenodd" clip-rule="evenodd" d="M7.61306 14.4567C8.09151 14.1404 11.6161 15.69 15.3161 17.9037C18.9922 20.1173 22.5167 22.6156 22.1978 23.0821L22.0941 23.2481L22.0463 23.2876C22.0542 23.2797 22.11 23.2086 22.0463 23.0426C21.8868 22.5287 19.3829 20.5522 15.2443 18.0697C11.2014 15.69 7.83634 14.2511 7.5094 14.6622L7.61306 14.4567ZM22.9553 21.9594C23.2583 21.3586 19.9889 18.9156 15.9301 16.5359C11.7835 14.2037 8.78526 12.828 8.23505 13.2391L8.12341 13.4684C8.11809 13.4684 8.12872 13.4552 8.1553 13.4289C8.25099 13.3498 8.41845 13.3498 8.49022 13.3498C9.43117 13.3656 12.1185 14.5911 15.8902 16.7336C17.5488 17.6823 22.8756 21.0819 22.8516 22.0306C22.8516 22.1096 22.8596 22.1255 22.8277 22.1729L22.9633 21.9673L22.9553 21.9594Z" fill="#FFFF00" stroke="black" stroke-width="0.075" stroke-linecap="round" stroke-linejoin="round"/>
<path d="M10.3259 18.9048C10.3286 19.5592 10.4614 20.2067 10.7169 20.8101C10.9723 21.4136 11.3453 21.9611 11.8144 22.4214C12.279 22.8891 12.8323 23.2611 13.4426 23.5158C14.0528 23.7705 14.7078 23.903 15.3699 23.9056C16.0336 23.9075 16.6911 23.7787 17.3043 23.5268C17.9175 23.2749 18.4743 22.905 18.9423 22.4383C19.4109 21.9763 19.7829 21.4271 20.0369 20.8221C20.2909 20.2172 20.4219 19.5685 20.4223 18.9133V12.2343L10.3259 12.2174V18.9048Z" fill="white" stroke="black" stroke-width="0.0933336"/>
<path d="M10.5304 18.9139C10.5303 19.5421 10.6566 20.164 10.902 20.7432C11.1474 21.3225 11.5069 21.8473 11.9594 22.2871C12.8649 23.1896 14.0947 23.6991 15.3787 23.7038C16.6603 23.7036 17.8897 23.2003 18.798 22.304C19.249 21.8635 19.6069 21.3383 19.8508 20.7591C20.0947 20.1799 20.2197 19.5584 20.2185 18.9307V12.4373H10.5304V18.9139ZM18.2706 14.3853V18.5091L18.2621 18.9392C18.266 19.316 18.1926 19.6898 18.0464 20.0377C17.9002 20.3856 17.6842 20.7004 17.4116 20.9631C16.8707 21.5012 16.1365 21.8045 15.3702 21.8064C14.5706 21.8064 13.8647 21.4691 13.3373 20.9462C12.7945 20.4099 12.4886 19.682 12.4867 18.9223V14.3684L18.2706 14.3853Z" fill="#FF0000" stroke="black" stroke-width="0.0666669"/>
<path d="M11.1438 14.1327C11.1523 13.6688 11.484 13.5592 11.484 13.5592C11.4925 13.5592 11.8498 13.6773 11.8498 14.1411L11.1438 14.1327Z" fill="#FFFF00"/>
<path d="M10.8531 13.5676L10.7935 14.0989H11.1508C11.1508 13.6604 11.491 13.5929 11.491 13.5929C11.4995 13.5929 11.8312 13.6857 11.8397 14.0989H12.197L12.1289 13.5592L10.8531 13.5676ZM10.768 14.1074H12.214C12.2423 14.1074 12.2594 14.127 12.265 14.1664C12.265 14.2114 12.248 14.2339 12.214 14.2339H10.768C10.7397 14.2339 10.7227 14.2114 10.717 14.1664C10.717 14.127 10.7368 14.1074 10.7765 14.1074H10.768Z" fill="#FFFF00" stroke="black" stroke-width="0.0666669"/>
<path d="M11.2946 14.0985C11.2946 13.8202 11.4902 13.7444 11.4902 13.7444C11.4902 13.7444 11.6858 13.8287 11.6858 14.0985H11.2946ZM10.8012 13.3396H12.1877C12.216 13.3452 12.233 13.3677 12.2387 13.407C12.2387 13.4351 12.2217 13.452 12.1877 13.4576H10.8012C10.7729 13.4576 10.7559 13.4379 10.7502 13.3986C10.7502 13.3705 10.7672 13.3536 10.8012 13.348V13.3396ZM10.8352 13.4661H12.1451C12.1735 13.4661 12.1905 13.4857 12.1962 13.5251C12.2018 13.5644 12.1848 13.5841 12.1451 13.5841H10.8267C10.7927 13.5841 10.7757 13.5644 10.7757 13.5251C10.7757 13.4857 10.7927 13.4661 10.8267 13.4661H10.8352ZM11.2605 12.5722H11.3626V12.6396H11.4392V12.5722H11.5497V12.6481H11.6263V12.5637H11.7283V12.7324C11.7283 12.7661 11.7142 12.783 11.6858 12.783H11.3116C11.2832 12.783 11.2662 12.7689 11.2605 12.7408V12.5722ZM11.6518 12.7998L11.6773 13.3396H11.3116L11.3371 12.7914H11.6518" fill="#FFFF00"/>
<path d="M11.6518 12.7998L11.6773 13.3396H11.3116L11.3371 12.7914H11.6518M11.2946 14.0985C11.2946 13.8202 11.4902 13.7444 11.4902 13.7444C11.4902 13.7444 11.6858 13.8287 11.6858 14.0985H11.2946ZM10.8012 13.3396H12.1877C12.216 13.3452 12.233 13.3677 12.2387 13.407C12.2387 13.4351 12.2217 13.452 12.1877 13.4576H10.8012C10.7729 13.4576 10.7559 13.4379 10.7502 13.3986C10.7502 13.3705 10.7672 13.3536 10.8012 13.348V13.3396ZM10.8352 13.4661H12.1451C12.1735 13.4661 12.1905 13.4857 12.1962 13.5251C12.2018 13.5644 12.1848 13.5841 12.1451 13.5841H10.8267C10.7927 13.5841 10.7757 13.5644 10.7757 13.5251C10.7757 13.4857 10.7927 13.4661 10.8267 13.4661H10.8352ZM11.2605 12.5722H11.3626V12.6396H11.4392V12.5722H11.5497V12.6481H11.6263V12.5637H11.7283V12.7324C11.7283 12.7661 11.7142 12.783 11.6858 12.783H11.3116C11.2832 12.783 11.2662 12.7689 11.2605 12.7408V12.5722Z" stroke="black" stroke-width="0.0666669"/>
<path d="M11.2105 13.0531V13.3398H10.8703V13.0531H11.2105Z" fill="#FFFF00" stroke="black" stroke-width="0.0666669"/>
<path d="M12.1128 13.0531V13.3398H11.7725V13.0531H12.1128Z" fill="#FFFF00" stroke="black" stroke-width="0.0666669"/>
<path d="M10.8115 12.8334H10.9136V12.9177H10.9901V12.8334H11.0922V12.9177H11.1688V12.8334H11.2708V13.002C11.2708 13.0358 11.2567 13.0526 11.2283 13.0526H10.8626C10.8508 13.0484 10.8402 13.0417 10.8314 13.033C10.8225 13.0242 10.8158 13.0137 10.8115 13.002V12.8334Z" fill="#FFFF00" stroke="black" stroke-width="0.0666669"/>
<path d="M11.7112 12.8334H11.8133V12.9177H11.8898V12.8334H11.9919V12.9177H12.0684V12.8334H12.1705V13.002C12.1705 13.0358 12.1563 13.0526 12.128 13.0526H11.7622C11.7505 13.0484 11.7398 13.0417 11.731 13.033C11.7222 13.0242 11.7154 13.0137 11.7112 13.002V12.8334Z" fill="#FFFF00" stroke="black" stroke-width="0.0666669"/>
<path d="M11.4582 12.9685C11.4582 12.9179 11.5347 12.9179 11.5347 12.9685V13.1034H11.4582V12.9685Z" fill="#000001"/>
<path d="M11.0058 13.1537C11.0058 13.1031 11.0738 13.1031 11.0738 13.1537V13.2549H11.0058V13.1537Z" fill="#000001"/>
<path d="M11.9078 13.154C11.9078 13.1034 11.9758 13.1034 11.9758 13.154V13.2552H11.9078V13.154Z" fill="#000001"/>
<path d="M11.1438 18.0367C11.1523 17.5729 11.484 17.4633 11.484 17.4633C11.4925 17.4633 11.8498 17.5813 11.8498 18.0451L11.1438 18.0367Z" fill="#FFFF00"/>
<path d="M10.8531 17.4717L10.7935 18.003H11.1508C11.1508 17.5645 11.491 17.497 11.491 17.497C11.4995 17.497 11.8312 17.5898 11.8397 18.003H12.197L12.1289 17.4633L10.8531 17.4717ZM10.768 18.0114H12.214C12.2423 18.0114 12.2594 18.0311 12.265 18.0704C12.265 18.1154 12.248 18.1379 12.214 18.1379H10.768C10.7397 18.1379 10.7227 18.1154 10.717 18.0704C10.717 18.0311 10.7368 18.0114 10.7765 18.0114H10.768Z" fill="#FFFF00" stroke="black" stroke-width="0.0666669"/>
<path d="M11.2946 18.0026C11.2946 17.7243 11.4902 17.6484 11.4902 17.6484C11.4902 17.6484 11.6858 17.7327 11.6858 18.0026H11.2946ZM10.8012 17.2436H12.1877C12.216 17.2492 12.233 17.2717 12.2387 17.3111C12.2387 17.3392 12.2217 17.3561 12.1877 17.3617H10.8012C10.7729 17.3617 10.7559 17.342 10.7502 17.3026C10.7502 17.2745 10.7672 17.2577 10.8012 17.252V17.2436ZM10.8352 17.3701H12.1451C12.1735 17.3701 12.1905 17.3898 12.1962 17.4291C12.2018 17.4685 12.1848 17.4882 12.1451 17.4882H10.8267C10.7927 17.4882 10.7757 17.4685 10.7757 17.4291C10.7757 17.3898 10.7927 17.3701 10.8267 17.3701H10.8352ZM11.2605 16.4762H11.3626V16.5437H11.4392V16.4762H11.5497V16.5521H11.6263V16.4678H11.7283V16.6364C11.7283 16.6702 11.7142 16.687 11.6858 16.687H11.3116C11.2832 16.687 11.2662 16.673 11.2605 16.6449V16.4762ZM11.6518 16.7039L11.6773 17.2436H11.3116L11.3371 16.6955H11.6518" fill="#FFFF00"/>
<path d="M11.6518 16.7039L11.6773 17.2436H11.3116L11.3371 16.6955H11.6518M11.2946 18.0026C11.2946 17.7243 11.4902 17.6484 11.4902 17.6484C11.4902 17.6484 11.6858 17.7327 11.6858 18.0026H11.2946ZM10.8012 17.2436H12.1877C12.216 17.2492 12.233 17.2717 12.2387 17.3111C12.2387 17.3392 12.2217 17.3561 12.1877 17.3617H10.8012C10.7729 17.3617 10.7559 17.342 10.7502 17.3026C10.7502 17.2745 10.7672 17.2577 10.8012 17.252V17.2436ZM10.8352 17.3701H12.1451C12.1735 17.3701 12.1905 17.3898 12.1962 17.4291C12.2018 17.4685 12.1848 17.4882 12.1451 17.4882H10.8267C10.7927 17.4882 10.7757 17.4685 10.7757 17.4291C10.7757 17.3898 10.7927 17.3701 10.8267 17.3701H10.8352ZM11.2605 16.4762H11.3626V16.5437H11.4392V16.4762H11.5497V16.5521H11.6263V16.4678H11.7283V16.6364C11.7283 16.6702 11.7142 16.687 11.6858 16.687H11.3116C11.2832 16.687 11.2662 16.673 11.2605 16.6449V16.4762Z" stroke="black" stroke-width="0.0666669"/>
<path d="M11.2103 16.9569V17.2436H10.8701V16.9569H11.2103Z" fill="#FFFF00" stroke="black" stroke-width="0.0666669"/>
<path d="M12.1128 16.9572V17.2439H11.7725V16.9572H12.1128Z" fill="#FFFF00" stroke="black" stroke-width="0.0666669"/>
<path d="M10.8115 16.7374H10.9136V16.8218H10.9901V16.7374H11.0922V16.8218H11.1688V16.7374H11.2708V16.9061C11.2708 16.9398 11.2567 16.9567 11.2283 16.9567H10.8626C10.8508 16.9525 10.8402 16.9458 10.8314 16.937C10.8225 16.9283 10.8158 16.9177 10.8115 16.9061V16.7374Z" fill="#FFFF00" stroke="black" stroke-width="0.0666669"/>
<path d="M11.7112 16.7374H11.8133V16.8218H11.8898V16.7374H11.9919V16.8218H12.0684V16.7374H12.1705V16.9061C12.1705 16.9398 12.1563 16.9567 12.128 16.9567H11.7622C11.7505 16.9525 11.7398 16.9458 11.731 16.937C11.7222 16.9283 11.7154 16.9177 11.7112 16.9061V16.7374Z" fill="#FFFF00" stroke="black" stroke-width="0.0666669"/>
<path d="M11.4582 16.8724C11.4582 16.8218 11.5347 16.8218 11.5347 16.8724V17.0073H11.4582V16.8724Z" fill="#000001"/>
<path d="M11.0058 17.0577C11.0058 17.0071 11.0738 17.0071 11.0738 17.0577V17.1589H11.0058V17.0577Z" fill="#000001"/>
<path d="M11.9078 17.0581C11.9078 17.0075 11.9758 17.0075 11.9758 17.0581V17.1593H11.9078V17.0581Z" fill="#000001"/>
<path d="M12.6788 22.1061C12.3528 21.7733 12.5081 21.4627 12.5081 21.4627C12.5141 21.4567 12.8503 21.2885 13.1823 21.6154L12.6788 22.1061Z" fill="#FFFF00"/>
<path d="M12.0713 21.9112L12.4096 22.3274L12.6613 22.0761C12.3475 21.7671 12.5389 21.4802 12.5389 21.4802C12.5449 21.4742 12.845 21.3062 13.1468 21.5914L13.3985 21.3401L12.9643 21.0076L12.0713 21.9112ZM12.3976 22.3513L13.4165 21.334C13.4365 21.3141 13.4626 21.316 13.4947 21.3397C13.5269 21.3714 13.531 21.3992 13.507 21.4232L12.4881 22.4404C12.4682 22.4604 12.4401 22.4565 12.4039 22.4288C12.3757 22.4011 12.3756 22.3732 12.4036 22.3453L12.3976 22.3513Z" fill="#FFFF00" stroke="black" stroke-width="0.0666669"/>
<path d="M12.7613 21.9736C12.5621 21.7775 12.6457 21.5864 12.6457 21.5864C12.6457 21.5864 12.8439 21.5082 13.037 21.6984L12.7613 21.9736ZM11.8705 21.7859L12.8475 20.8105C12.8715 20.7945 12.8996 20.7984 12.9317 20.8221C12.9518 20.842 12.9519 20.8658 12.932 20.8937L11.955 21.8691C11.935 21.889 11.9089 21.8872 11.8768 21.8634C11.8567 21.8436 11.8566 21.8198 11.8765 21.7919L11.8705 21.7859ZM11.985 21.8511L12.908 20.9296C12.928 20.9096 12.9541 20.9115 12.9862 20.9353C13.0184 20.959 13.0205 20.9848 12.9925 21.0128L12.0635 21.9403C12.0395 21.9642 12.0135 21.9623 11.9853 21.9346C11.9571 21.9069 11.955 21.881 11.979 21.8571L11.985 21.8511ZM11.645 20.922L11.7169 20.8502L11.7652 20.8978L11.8191 20.8439L11.7708 20.7964L11.8487 20.7186L11.9031 20.7721L11.957 20.7182L11.8966 20.6588L11.9686 20.587L12.0893 20.7058C12.1134 20.7296 12.1155 20.7514 12.0955 20.7714L11.8318 21.0347C11.8118 21.0546 11.7898 21.0567 11.7657 21.0409L11.645 20.922ZM12.0836 20.8072L12.4878 21.1696L12.2301 21.4269L11.8558 21.0227L12.0776 20.8013" fill="#FFFF00"/>
<path d="M12.0836 20.8072L12.4878 21.1696L12.2301 21.4269L11.8558 21.0227L12.0776 20.8013M12.7613 21.9736C12.5621 21.7775 12.6457 21.5864 12.6457 21.5864C12.6457 21.5864 12.8439 21.5082 13.037 21.6984L12.7613 21.9736ZM11.8705 21.7859L12.8475 20.8105C12.8715 20.7945 12.8996 20.7984 12.9317 20.8221C12.9518 20.842 12.9519 20.8658 12.932 20.8937L11.955 21.8691C11.935 21.889 11.9089 21.8872 11.8768 21.8634C11.8567 21.8436 11.8566 21.8198 11.8765 21.7919L11.8705 21.7859ZM11.985 21.8511L12.908 20.9296C12.928 20.9096 12.9541 20.9115 12.9862 20.9353C13.0184 20.959 13.0205 20.9848 12.9925 21.0128L12.0635 21.9403C12.0395 21.9642 12.0135 21.9623 11.9853 21.9346C11.9571 21.9069 11.955 21.881 11.979 21.8571L11.985 21.8511ZM11.645 20.922L11.7169 20.8502L11.7652 20.8978L11.8191 20.8439L11.7708 20.7964L11.8487 20.7186L11.9031 20.7721L11.957 20.7182L11.8966 20.6588L11.9686 20.587L12.0893 20.7058C12.1134 20.7296 12.1155 20.7514 12.0955 20.7714L11.8318 21.0347C11.8118 21.0546 11.7898 21.0567 11.7657 21.0409L11.645 20.922Z" stroke="black" stroke-width="0.0666669"/>
<path d="M11.9535 21.2965L12.1587 21.4986L11.9189 21.7379L11.7137 21.5359L11.9535 21.2965Z" fill="#FFFF00" stroke="black" stroke-width="0.0666669"/>
<path d="M12.5899 20.6627L12.7951 20.8648L12.5554 21.1041L12.3502 20.9021L12.5899 20.6627Z" fill="#FFFF00" stroke="black" stroke-width="0.0666669"/>
<path d="M11.5144 21.4235L11.5863 21.3517L11.6467 21.4111L11.7006 21.3572L11.6403 21.2978L11.7122 21.226L11.7725 21.2854L11.8265 21.2316L11.7661 21.1721L11.8381 21.1003L11.9588 21.2192C11.9829 21.2429 11.985 21.2648 11.965 21.2847L11.7073 21.5421C11.696 21.5473 11.6837 21.5501 11.6712 21.5501C11.6587 21.5502 11.6464 21.5475 11.6351 21.5423L11.5144 21.4235Z" fill="#FFFF00" stroke="black" stroke-width="0.0666669"/>
<path d="M12.1508 20.7883L12.2227 20.7165L12.2831 20.7759L12.337 20.7221L12.2767 20.6627L12.3486 20.5909L12.409 20.6503L12.4629 20.5964L12.4025 20.537L12.4745 20.4652L12.5952 20.584C12.6193 20.6078 12.6214 20.6297 12.6014 20.6496L12.3437 20.9069C12.3324 20.9122 12.3201 20.915 12.3076 20.915C12.2952 20.9151 12.2828 20.9124 12.2715 20.9072L12.1508 20.7883Z" fill="#FFFF00" stroke="black" stroke-width="0.0666669"/>
<path d="M12.0681 21.063C12.0318 21.0273 12.0858 20.9735 12.122 21.0091L12.2186 21.1042L12.1646 21.1581L12.0681 21.063Z" fill="#000001"/>
<path d="M11.8815 21.5115C11.8453 21.4758 11.8932 21.428 11.9294 21.4636L12.0018 21.5349L11.9539 21.5828L11.8815 21.5115Z" fill="#000001"/>
<path d="M12.5179 20.8777C12.4817 20.842 12.5296 20.7942 12.5658 20.8298L12.6383 20.9011L12.5903 20.949L12.5179 20.8777Z" fill="#000001"/>
<path d="M15.0286 14.1327C15.0371 13.6688 15.3689 13.5592 15.3689 13.5592C15.3774 13.5592 15.7346 13.6773 15.7346 14.1411L15.0286 14.1327Z" fill="#FFFF00"/>
<path d="M14.7405 13.5676L14.6809 14.0989H15.0382C15.0382 13.6604 15.3784 13.5929 15.3784 13.5929C15.3869 13.5929 15.7186 13.6857 15.7271 14.0989H16.0844L16.0163 13.5592L14.7405 13.5676ZM14.6554 14.1074H16.1014C16.1297 14.1074 16.1468 14.127 16.1524 14.1664C16.1524 14.2114 16.1354 14.2339 16.1014 14.2339H14.6554C14.6271 14.2339 14.61 14.2114 14.6044 14.1664C14.6044 14.127 14.6242 14.1074 14.6639 14.1074H14.6554Z" fill="#FFFF00" stroke="black" stroke-width="0.0666669"/>
<path d="M15.1819 14.0985C15.1819 13.8202 15.3776 13.7444 15.3776 13.7444C15.3776 13.7444 15.5732 13.8287 15.5732 14.0985H15.1819ZM14.6886 13.3396H16.075C16.1034 13.3452 16.1204 13.3677 16.1261 13.407C16.1261 13.4351 16.1091 13.452 16.075 13.4576H14.6886C14.6603 13.4576 14.6432 13.4379 14.6376 13.3986C14.6376 13.3705 14.6546 13.3536 14.6886 13.348V13.3396ZM14.7226 13.4661H16.0325C16.0609 13.4661 16.0779 13.4857 16.0836 13.5251C16.0892 13.5644 16.0722 13.5841 16.0325 13.5841H14.7141C14.6801 13.5841 14.6631 13.5644 14.6631 13.5251C14.6631 13.4857 14.6801 13.4661 14.7141 13.4661H14.7226ZM15.1479 12.5722H15.25V12.6396H15.3265V12.5722H15.4371V12.6481H15.5137V12.5637H15.6157V12.7324C15.6157 12.7661 15.6016 12.783 15.5732 12.783H15.199C15.1706 12.783 15.1536 12.7689 15.1479 12.7408V12.5722ZM15.5392 12.7998L15.5647 13.3396H15.199L15.2245 12.7914H15.5392" fill="#FFFF00"/>
<path d="M15.5392 12.7998L15.5647 13.3396H15.199L15.2245 12.7914H15.5392M15.1819 14.0985C15.1819 13.8202 15.3776 13.7444 15.3776 13.7444C15.3776 13.7444 15.5732 13.8287 15.5732 14.0985H15.1819ZM14.6886 13.3396H16.075C16.1034 13.3452 16.1204 13.3677 16.1261 13.407C16.1261 13.4351 16.1091 13.452 16.075 13.4576H14.6886C14.6603 13.4576 14.6432 13.4379 14.6376 13.3986C14.6376 13.3705 14.6546 13.3536 14.6886 13.348V13.3396ZM14.7226 13.4661H16.0325C16.0609 13.4661 16.0779 13.4857 16.0836 13.5251C16.0892 13.5644 16.0722 13.5841 16.0325 13.5841H14.7141C14.6801 13.5841 14.6631 13.5644 14.6631 13.5251C14.6631 13.4857 14.6801 13.4661 14.7141 13.4661H14.7226ZM15.1479 12.5722H15.25V12.6396H15.3265V12.5722H15.4371V12.6481H15.5137V12.5637H15.6157V12.7324C15.6157 12.7661 15.6016 12.783 15.5732 12.783H15.199C15.1706 12.783 15.1536 12.7689 15.1479 12.7408V12.5722Z" stroke="black" stroke-width="0.0666669"/>
<path d="M15.0979 13.0531V13.3398H14.7577V13.0531H15.0979Z" fill="#FFFF00" stroke="black" stroke-width="0.0666669"/>
<path d="M16.0001 13.0531V13.3398H15.6599V13.0531H16.0001Z" fill="#FFFF00" stroke="black" stroke-width="0.0666669"/>
<path d="M14.6989 12.8334H14.801V12.9177H14.8775V12.8334H14.9796V12.9177H15.0562V12.8334H15.1582V13.002C15.1582 13.0358 15.144 13.0526 15.1157 13.0526H14.7499C14.7382 13.0484 14.7276 13.0417 14.7187 13.033C14.7099 13.0242 14.7032 13.0137 14.6989 13.002V12.8334Z" fill="#FFFF00" stroke="black" stroke-width="0.0666669"/>
<path d="M15.5986 12.8334H15.7006V12.9177H15.7772V12.8334H15.8793V12.9177H15.9558V12.8334H16.0579V13.002C16.0579 13.0358 16.0437 13.0526 16.0154 13.0526H15.6496C15.6379 13.0484 15.6272 13.0417 15.6184 13.033C15.6096 13.0242 15.6028 13.0137 15.5986 13.002V12.8334Z" fill="#FFFF00" stroke="black" stroke-width="0.0666669"/>
<path d="M15.3456 12.9684C15.3456 12.9178 15.4221 12.9178 15.4221 12.9684V13.1033H15.3456V12.9684Z" fill="#000001"/>
<path d="M14.8932 13.1537C14.8932 13.1031 14.9612 13.1031 14.9612 13.1537V13.2549H14.8932V13.1537Z" fill="#000001"/>
<path d="M15.7952 13.154C15.7952 13.1034 15.8632 13.1034 15.8632 13.154V13.2552H15.7952V13.154Z" fill="#000001"/>
<path d="M19.5984 14.1327C19.5899 13.6688 19.2582 13.5592 19.2582 13.5592C19.2497 13.5592 18.8925 13.6773 18.8925 14.1411L19.5984 14.1327Z" fill="#FFFF00"/>
<path d="M19.8866 13.5676L19.9462 14.0989H19.5889C19.5889 13.6604 19.2487 13.5929 19.2487 13.5929C19.2402 13.5929 18.9084 13.6857 18.8999 14.0989H18.5427L18.6107 13.5592L19.8866 13.5676ZM19.9717 14.1074H18.5257C18.4973 14.1074 18.4803 14.127 18.4747 14.1664C18.4747 14.2114 18.4917 14.2339 18.5257 14.2339H19.9717C20 14.2339 20.017 14.2114 20.0227 14.1664C20.0227 14.127 20.0029 14.1074 19.9632 14.1074H19.9717Z" fill="#FFFF00" stroke="black" stroke-width="0.0666669"/>
<path d="M19.4451 14.0985C19.4451 13.8202 19.2495 13.7444 19.2495 13.7444C19.2495 13.7444 19.0539 13.8287 19.0539 14.0985H19.4451ZM19.9385 13.3396H18.552C18.5237 13.3452 18.5067 13.3677 18.501 13.407C18.501 13.4351 18.518 13.452 18.552 13.4576H19.9385C19.9668 13.4576 19.9838 13.4379 19.9895 13.3986C19.9895 13.3705 19.9725 13.3536 19.9385 13.348V13.3396ZM19.9044 13.4661H18.5946C18.5662 13.4661 18.5492 13.4857 18.5435 13.5251C18.5378 13.5644 18.5549 13.5841 18.5946 13.5841H19.913C19.947 13.5841 19.964 13.5644 19.964 13.5251C19.964 13.4857 19.947 13.4661 19.913 13.4661H19.9044ZM19.4792 12.5722H19.3771V12.6396H19.3005V12.5722H19.19V12.6481H19.1134V12.5637H19.0113V12.7324C19.0113 12.7661 19.0255 12.783 19.0539 12.783H19.4281C19.4565 12.783 19.4735 12.7689 19.4792 12.7408V12.5722ZM19.0879 12.7998L19.0624 13.3396H19.4281L19.4026 12.7914H19.0879" fill="#FFFF00"/>
<path d="M19.0879 12.7998L19.0624 13.3396H19.4281L19.4026 12.7914H19.0879M19.4451 14.0985C19.4451 13.8202 19.2495 13.7444 19.2495 13.7444C19.2495 13.7444 19.0539 13.8287 19.0539 14.0985H19.4451ZM19.9385 13.3396H18.552C18.5237 13.3452 18.5067 13.3677 18.501 13.407C18.501 13.4351 18.518 13.452 18.552 13.4576H19.9385C19.9668 13.4576 19.9838 13.4379 19.9895 13.3986C19.9895 13.3705 19.9725 13.3536 19.9385 13.348V13.3396ZM19.9044 13.4661H18.5946C18.5662 13.4661 18.5492 13.4857 18.5435 13.5251C18.5378 13.5644 18.5549 13.5841 18.5946 13.5841H19.913C19.947 13.5841 19.964 13.5644 19.964 13.5251C19.964 13.4857 19.947 13.4661 19.913 13.4661H19.9044ZM19.4792 12.5722H19.3771V12.6396H19.3005V12.5722H19.19V12.6481H19.1134V12.5637H19.0113V12.7324C19.0113 12.7661 19.0255 12.783 19.0539 12.783H19.4281C19.4565 12.783 19.4735 12.7689 19.4792 12.7408V12.5722Z" stroke="black" stroke-width="0.0666669"/>
<path d="M19.5292 13.0531V13.3398H19.8694V13.0531H19.5292Z" fill="#FFFF00" stroke="black" stroke-width="0.0666669"/>
<path d="M18.6269 13.0531V13.3398H18.9672V13.0531H18.6269Z" fill="#FFFF00" stroke="black" stroke-width="0.0666669"/>
<path d="M19.9282 12.8334H19.8261V12.9177H19.7495V12.8334H19.6475V12.9177H19.5709V12.8334H19.4689V13.002C19.4689 13.0358 19.483 13.0526 19.5114 13.0526H19.8771C19.8889 13.0484 19.8995 13.0417 19.9083 13.033C19.9171 13.0242 19.9239 13.0137 19.9282 13.002V12.8334Z" fill="#FFFF00" stroke="black" stroke-width="0.0666669"/>
<path d="M19.0285 12.8334H18.9264V12.9177H18.8499V12.8334H18.7478V12.9177H18.6713V12.8334H18.5692V13.002C18.5692 13.0358 18.5834 13.0526 18.6117 13.0526H18.9775C18.9892 13.0484 18.9998 13.0417 19.0087 13.033C19.0175 13.0242 19.0243 13.0137 19.0285 13.002V12.8334Z" fill="#FFFF00" stroke="black" stroke-width="0.0666669"/>
<path d="M19.2815 12.9685C19.2815 12.9179 19.2049 12.9179 19.2049 12.9685V13.1034H19.2815V12.9685Z" fill="#000001"/>
<path d="M19.7339 13.1537C19.7339 13.1031 19.6658 13.1031 19.6658 13.1537V13.2549H19.7339V13.1537Z" fill="#000001"/>
<path d="M18.8319 13.154C18.8319 13.1034 18.7639 13.1034 18.7639 13.154V13.2552H18.8319V13.154Z" fill="#000001"/>
<path d="M19.5984 18.0367C19.5899 17.5729 19.2582 17.4633 19.2582 17.4633C19.2497 17.4633 18.8925 17.5813 18.8925 18.0451L19.5984 18.0367Z" fill="#FFFF00"/>
<path d="M19.8866 17.4717L19.9462 18.003H19.5889C19.5889 17.5645 19.2487 17.497 19.2487 17.497C19.2402 17.497 18.9084 17.5898 18.8999 18.003H18.5427L18.6107 17.4633L19.8866 17.4717ZM19.9717 18.0114H18.5257C18.4973 18.0114 18.4803 18.0311 18.4747 18.0704C18.4747 18.1154 18.4917 18.1379 18.5257 18.1379H19.9717C20 18.1379 20.017 18.1154 20.0227 18.0704C20.0227 18.0311 20.0029 18.0114 19.9632 18.0114H19.9717Z" fill="#FFFF00" stroke="black" stroke-width="0.0666669"/>
<path d="M19.4451 18.0026C19.4451 17.7243 19.2495 17.6484 19.2495 17.6484C19.2495 17.6484 19.0539 17.7327 19.0539 18.0026H19.4451ZM19.9385 17.2436H18.552C18.5237 17.2492 18.5067 17.2717 18.501 17.3111C18.501 17.3392 18.518 17.3561 18.552 17.3617H19.9385C19.9668 17.3617 19.9838 17.342 19.9895 17.3026C19.9895 17.2745 19.9725 17.2577 19.9385 17.252V17.2436ZM19.9044 17.3701H18.5946C18.5662 17.3701 18.5492 17.3898 18.5435 17.4291C18.5378 17.4685 18.5549 17.4882 18.5946 17.4882H19.913C19.947 17.4882 19.964 17.4685 19.964 17.4291C19.964 17.3898 19.947 17.3701 19.913 17.3701H19.9044ZM19.4792 16.4762H19.3771V16.5437H19.3005V16.4762H19.19V16.5521H19.1134V16.4678H19.0113V16.6364C19.0113 16.6702 19.0255 16.687 19.0539 16.687H19.4281C19.4565 16.687 19.4735 16.673 19.4792 16.6449V16.4762ZM19.0879 16.7039L19.0624 17.2436H19.4281L19.4026 16.6955H19.0879" fill="#FFFF00"/>
<path d="M19.0879 16.7039L19.0624 17.2436H19.4281L19.4026 16.6955H19.0879M19.4451 18.0026C19.4451 17.7243 19.2495 17.6484 19.2495 17.6484C19.2495 17.6484 19.0539 17.7327 19.0539 18.0026H19.4451ZM19.9385 17.2436H18.552C18.5237 17.2492 18.5067 17.2717 18.501 17.3111C18.501 17.3392 18.518 17.3561 18.552 17.3617H19.9385C19.9668 17.3617 19.9838 17.342 19.9895 17.3026C19.9895 17.2745 19.9725 17.2577 19.9385 17.252V17.2436ZM19.9044 17.3701H18.5946C18.5662 17.3701 18.5492 17.3898 18.5435 17.4291C18.5378 17.4685 18.5549 17.4882 18.5946 17.4882H19.913C19.947 17.4882 19.964 17.4685 19.964 17.4291C19.964 17.3898 19.947 17.3701 19.913 17.3701H19.9044ZM19.4792 16.4762H19.3771V16.5437H19.3005V16.4762H19.19V16.5521H19.1134V16.4678H19.0113V16.6364C19.0113 16.6702 19.0255 16.687 19.0539 16.687H19.4281C19.4565 16.687 19.4735 16.673 19.4792 16.6449V16.4762Z" stroke="black" stroke-width="0.0666669"/>
<path d="M19.5294 16.9569V17.2436H19.8696V16.9569H19.5294Z" fill="#FFFF00" stroke="black" stroke-width="0.0666669"/>
<path d="M18.6269 16.9572V17.2439H18.9672V16.9572H18.6269Z" fill="#FFFF00" stroke="black" stroke-width="0.0666669"/>
<path d="M19.9282 16.7374H19.8261V16.8218H19.7495V16.7374H19.6475V16.8218H19.5709V16.7374H19.4689V16.9061C19.4689 16.9398 19.483 16.9567 19.5114 16.9567H19.8771C19.8889 16.9525 19.8995 16.9458 19.9083 16.937C19.9171 16.9283 19.9239 16.9177 19.9282 16.9061V16.7374Z" fill="#FFFF00" stroke="black" stroke-width="0.0666669"/>
<path d="M19.0285 16.7374H18.9264V16.8218H18.8499V16.7374H18.7478V16.8218H18.6713V16.7374H18.5692V16.9061C18.5692 16.9398 18.5834 16.9567 18.6117 16.9567H18.9775C18.9892 16.9525 18.9998 16.9458 19.0087 16.937C19.0175 16.9283 19.0243 16.9177 19.0285 16.9061V16.7374Z" fill="#FFFF00" stroke="black" stroke-width="0.0666669"/>
<path d="M19.2815 16.8724C19.2815 16.8218 19.2049 16.8218 19.2049 16.8724V17.0073H19.2815V16.8724Z" fill="#000001"/>
<path d="M19.7339 17.0577C19.7339 17.0071 19.6658 17.0071 19.6658 17.0577V17.1589H19.7339V17.0577Z" fill="#000001"/>
<path d="M18.8319 17.0581C18.8319 17.0075 18.7639 17.0075 18.7639 17.0581V17.1593H18.8319V17.0581Z" fill="#000001"/>
<path d="M18.0609 22.1061C18.3869 21.7733 18.2316 21.4627 18.2316 21.4627C18.2256 21.4567 17.8893 21.2885 17.5574 21.6154L18.0609 22.1061Z" fill="#FFFF00"/>
<path d="M18.6684 21.9112L18.3301 22.3274L18.0784 22.0761C18.3922 21.7671 18.2008 21.4802 18.2008 21.4802C18.1948 21.4742 17.8946 21.3062 17.5929 21.5914L17.3412 21.3401L17.7754 21.0076L18.6684 21.9112ZM18.3421 22.3513L17.3232 21.334C17.3032 21.3141 17.2771 21.316 17.245 21.3397C17.2128 21.3714 17.2087 21.3992 17.2326 21.4232L18.2515 22.4404C18.2715 22.4604 18.2996 22.4565 18.3358 22.4288C18.364 22.4011 18.3641 22.3732 18.3361 22.3453L18.3421 22.3513Z" fill="#FFFF00" stroke="black" stroke-width="0.0666669"/>
<path d="M17.9784 21.9736C18.1775 21.7775 18.094 21.5864 18.094 21.5864C18.094 21.5864 17.8958 21.5082 17.7027 21.6984L17.9784 21.9736ZM18.8692 21.7859L17.8922 20.8105C17.8682 20.7945 17.8401 20.7984 17.808 20.8221C17.7879 20.842 17.7878 20.8658 17.8077 20.8937L18.7847 21.8691C18.8047 21.889 18.8307 21.8872 18.8629 21.8634C18.883 21.8436 18.8831 21.8198 18.8631 21.7919L18.8692 21.7859ZM18.7547 21.8511L17.8317 20.9296C17.8117 20.9096 17.7856 20.9115 17.7534 20.9353C17.7213 20.959 17.7192 20.9848 17.7472 21.0128L18.6762 21.9403C18.7002 21.9642 18.7262 21.9623 18.7544 21.9346C18.7826 21.9069 18.7846 21.881 18.7607 21.8571L18.7547 21.8511ZM19.0947 20.922L19.0228 20.8502L18.9745 20.8978L18.9206 20.8439L18.9689 20.7964L18.891 20.7186L18.8366 20.7721L18.7827 20.7182L18.843 20.6588L18.7711 20.587L18.6504 20.7058C18.6263 20.7296 18.6242 20.7514 18.6442 20.7714L18.9079 21.0347C18.9279 21.0546 18.9499 21.0567 18.974 21.0409L19.0947 20.922ZM18.6561 20.8072L18.2518 21.1696L18.5096 21.4269L18.8839 21.0227L18.6621 20.8013" fill="#FFFF00"/>
<path d="M18.6561 20.8072L18.2518 21.1696L18.5096 21.4269L18.8839 21.0227L18.6621 20.8013M17.9784 21.9736C18.1775 21.7775 18.094 21.5864 18.094 21.5864C18.094 21.5864 17.8958 21.5082 17.7027 21.6984L17.9784 21.9736ZM18.8692 21.7859L17.8922 20.8105C17.8682 20.7945 17.8401 20.7984 17.808 20.8221C17.7879 20.842 17.7878 20.8658 17.8077 20.8937L18.7847 21.8691C18.8047 21.889 18.8307 21.8872 18.8629 21.8634C18.883 21.8436 18.8831 21.8198 18.8631 21.7919L18.8692 21.7859ZM18.7547 21.8511L17.8317 20.9296C17.8117 20.9096 17.7856 20.9115 17.7534 20.9353C17.7213 20.959 17.7192 20.9848 17.7472 21.0128L18.6762 21.9403C18.7002 21.9642 18.7262 21.9623 18.7544 21.9346C18.7826 21.9069 18.7846 21.881 18.7607 21.8571L18.7547 21.8511ZM19.0947 20.922L19.0228 20.8502L18.9745 20.8978L18.9206 20.8439L18.9689 20.7964L18.891 20.7186L18.8366 20.7721L18.7827 20.7182L18.843 20.6588L18.7711 20.587L18.6504 20.7058C18.6263 20.7296 18.6242 20.7514 18.6442 20.7714L18.9079 21.0347C18.9279 21.0546 18.9499 21.0567 18.974 21.0409L19.0947 20.922Z" stroke="black" stroke-width="0.0666669"/>
<path d="M18.7862 21.2965L18.581 21.4986L18.8207 21.7379L19.0259 21.5359L18.7862 21.2965Z" fill="#FFFF00" stroke="black" stroke-width="0.0666669"/>
<path d="M18.1498 20.6627L17.9446 20.8648L18.1843 21.1041L18.3895 20.9021L18.1498 20.6627Z" fill="#FFFF00" stroke="black" stroke-width="0.0666669"/>
<path d="M19.2253 21.4235L19.1534 21.3517L19.093 21.4111L19.0391 21.3572L19.0994 21.2978L19.0275 21.226L18.9671 21.2854L18.9132 21.2316L18.9736 21.1721L18.9016 21.1003L18.7809 21.2192C18.7568 21.2429 18.7547 21.2648 18.7747 21.2847L19.0324 21.5421C19.0437 21.5473 19.056 21.5501 19.0685 21.5501C19.0809 21.5502 19.0933 21.5475 19.1046 21.5423L19.2253 21.4235Z" fill="#FFFF00" stroke="black" stroke-width="0.0666669"/>
<path d="M18.5889 20.7883L18.5169 20.7165L18.4566 20.7759L18.4027 20.7221L18.463 20.6627L18.3911 20.5909L18.3307 20.6503L18.2768 20.5964L18.3371 20.537L18.2652 20.4652L18.1445 20.584C18.1204 20.6078 18.1183 20.6297 18.1383 20.6496L18.396 20.9069C18.4073 20.9122 18.4196 20.915 18.432 20.915C18.4445 20.9151 18.4569 20.9124 18.4682 20.9072L18.5889 20.7883Z" fill="#FFFF00" stroke="black" stroke-width="0.0666669"/>
<path d="M18.6716 21.063C18.7078 21.0273 18.6539 20.9735 18.6177 21.0091L18.5211 21.1042L18.5751 21.1581L18.6716 21.063Z" fill="#000001"/>
<path d="M18.8582 21.5115C18.8944 21.4758 18.8465 21.428 18.8103 21.4636L18.7378 21.5349L18.7858 21.5828L18.8582 21.5115Z" fill="#000001"/>
<path d="M18.2218 20.8777C18.258 20.842 18.2101 20.7942 18.1739 20.8298L18.1014 20.9011L18.1494 20.949L18.2218 20.8777Z" fill="#000001"/>
<path d="M14.7477 18.1797C14.7435 18.3582 14.8107 18.531 14.9348 18.6604C14.9909 18.7242 15.0602 18.7753 15.138 18.8102C15.2158 18.8451 15.3002 18.8631 15.3856 18.8628C15.5671 18.8515 15.7173 18.7841 15.8364 18.6604C15.9605 18.531 16.0278 18.3582 16.0236 18.1797V17.2689H14.7477V18.1797Z" fill="#003399"/>
<path d="M15.0463 17.7418C15.1168 17.7418 15.1739 17.6851 15.1739 17.6153C15.1739 17.5454 15.1168 17.4888 15.0463 17.4888C14.9759 17.4888 14.9188 17.5454 14.9188 17.6153C14.9188 17.6851 14.9759 17.7418 15.0463 17.7418Z" fill="white"/>
<path d="M15.7517 17.7418C15.8222 17.7418 15.8793 17.6851 15.8793 17.6153C15.8793 17.5454 15.8222 17.4888 15.7517 17.4888C15.6813 17.4888 15.6241 17.5454 15.6241 17.6153C15.6241 17.6851 15.6813 17.7418 15.7517 17.7418Z" fill="white"/>
<path d="M15.3939 18.079C15.4644 18.079 15.5215 18.0224 15.5215 17.9525C15.5215 17.8827 15.4644 17.826 15.3939 17.826C15.3235 17.826 15.2664 17.8827 15.2664 17.9525C15.2664 18.0224 15.3235 18.079 15.3939 18.079Z" fill="white"/>
<path d="M15.0463 18.433C15.1168 18.433 15.1739 18.3764 15.1739 18.3065C15.1739 18.2367 15.1168 18.1801 15.0463 18.1801C14.9759 18.1801 14.9188 18.2367 14.9188 18.3065C14.9188 18.3764 14.9759 18.433 15.0463 18.433Z" fill="white"/>
<path d="M15.7517 18.433C15.8222 18.433 15.8793 18.3764 15.8793 18.3065C15.8793 18.2367 15.8222 18.1801 15.7517 18.1801C15.6813 18.1801 15.6241 18.2367 15.6241 18.3065C15.6241 18.3764 15.6813 18.433 15.7517 18.433Z" fill="white"/>
<path d="M14.7477 15.9868C14.7435 16.1653 14.8107 16.3381 14.9348 16.4675C14.9909 16.5313 15.0602 16.5824 15.138 16.6173C15.2158 16.6523 15.3002 16.6702 15.3856 16.6699C15.5671 16.6587 15.7173 16.5912 15.8364 16.4675C15.9605 16.3381 16.0278 16.1653 16.0236 15.9868V15.076H14.7477V15.9868Z" fill="#003399"/>
<path d="M15.0463 15.5489C15.1168 15.5489 15.1739 15.4923 15.1739 15.4224C15.1739 15.3525 15.1168 15.2959 15.0463 15.2959C14.9759 15.2959 14.9188 15.3525 14.9188 15.4224C14.9188 15.4923 14.9759 15.5489 15.0463 15.5489Z" fill="white"/>
<path d="M15.7517 15.5489C15.8222 15.5489 15.8793 15.4923 15.8793 15.4224C15.8793 15.3525 15.8222 15.2959 15.7517 15.2959C15.6813 15.2959 15.6241 15.3525 15.6241 15.4224C15.6241 15.4923 15.6813 15.5489 15.7517 15.5489Z" fill="white"/>
<path d="M15.3939 15.8862C15.4644 15.8862 15.5215 15.8295 15.5215 15.7597C15.5215 15.6898 15.4644 15.6332 15.3939 15.6332C15.3235 15.6332 15.2664 15.6898 15.2664 15.7597C15.2664 15.8295 15.3235 15.8862 15.3939 15.8862Z" fill="white"/>
<path d="M15.0463 16.2402C15.1168 16.2402 15.1739 16.1835 15.1739 16.1137C15.1739 16.0438 15.1168 15.9872 15.0463 15.9872C14.9759 15.9872 14.9188 16.0438 14.9188 16.1137C14.9188 16.1835 14.9759 16.2402 15.0463 16.2402Z" fill="white"/>
<path d="M15.7517 16.2402C15.8222 16.2402 15.8793 16.1835 15.8793 16.1137C15.8793 16.0438 15.8222 15.9872 15.7517 15.9872C15.6813 15.9872 15.6241 16.0438 15.6241 16.1137C15.6241 16.1835 15.6813 16.2402 15.7517 16.2402Z" fill="white"/>
<path d="M12.9791 18.1797C12.9748 18.3582 13.0421 18.531 13.1662 18.6604C13.2223 18.7242 13.2916 18.7753 13.3694 18.8102C13.4472 18.8451 13.5316 18.8631 13.617 18.8628C13.7985 18.8515 13.9487 18.7841 14.0678 18.6604C14.1919 18.531 14.2592 18.3582 14.2549 18.1797V17.2689H12.9791V18.1797Z" fill="#003399"/>
<path d="M13.2777 17.7418C13.3482 17.7418 13.4053 17.6851 13.4053 17.6153C13.4053 17.5454 13.3482 17.4888 13.2777 17.4888C13.2073 17.4888 13.1501 17.5454 13.1501 17.6153C13.1501 17.6851 13.2073 17.7418 13.2777 17.7418Z" fill="white"/>
<path d="M13.9831 17.7418C14.0536 17.7418 14.1107 17.6851 14.1107 17.6153C14.1107 17.5454 14.0536 17.4888 13.9831 17.4888C13.9127 17.4888 13.8555 17.5454 13.8555 17.6153C13.8555 17.6851 13.9127 17.7418 13.9831 17.7418Z" fill="white"/>
<path d="M13.6253 18.079C13.6958 18.079 13.7529 18.0224 13.7529 17.9525C13.7529 17.8827 13.6958 17.826 13.6253 17.826C13.5549 17.826 13.4977 17.8827 13.4977 17.9525C13.4977 18.0224 13.5549 18.079 13.6253 18.079Z" fill="white"/>
<path d="M13.2777 18.433C13.3482 18.433 13.4053 18.3764 13.4053 18.3065C13.4053 18.2367 13.3482 18.1801 13.2777 18.1801C13.2073 18.1801 13.1501 18.2367 13.1501 18.3065C13.1501 18.3764 13.2073 18.433 13.2777 18.433Z" fill="white"/>
<path d="M13.9831 18.433C14.0536 18.433 14.1107 18.3764 14.1107 18.3065C14.1107 18.2367 14.0536 18.1801 13.9831 18.1801C13.9127 18.1801 13.8555 18.2367 13.8555 18.3065C13.8555 18.3764 13.9127 18.433 13.9831 18.433Z" fill="white"/>
<path d="M16.5189 18.1797C16.5146 18.3582 16.5819 18.531 16.706 18.6604C16.7621 18.7242 16.8314 18.7753 16.9092 18.8102C16.987 18.8451 17.0714 18.8631 17.1568 18.8628C17.3383 18.8515 17.4885 18.7841 17.6076 18.6604C17.7317 18.531 17.799 18.3582 17.7947 18.1797V17.2689H16.5189V18.1797Z" fill="#003399"/>
<path d="M16.8175 17.7418C16.888 17.7418 16.9451 17.6851 16.9451 17.6153C16.9451 17.5454 16.888 17.4888 16.8175 17.4888C16.7471 17.4888 16.6899 17.5454 16.6899 17.6153C16.6899 17.6851 16.7471 17.7418 16.8175 17.7418Z" fill="white"/>
<path d="M17.5229 17.7418C17.5934 17.7418 17.6505 17.6851 17.6505 17.6153C17.6505 17.5454 17.5934 17.4888 17.5229 17.4888C17.4524 17.4888 17.3953 17.5454 17.3953 17.6153C17.3953 17.6851 17.4524 17.7418 17.5229 17.7418Z" fill="white"/>
<path d="M17.1651 18.079C17.2356 18.079 17.2927 18.0224 17.2927 17.9525C17.2927 17.8827 17.2356 17.826 17.1651 17.826C17.0947 17.826 17.0375 17.8827 17.0375 17.9525C17.0375 18.0224 17.0947 18.079 17.1651 18.079Z" fill="white"/>
<path d="M16.8175 18.433C16.888 18.433 16.9451 18.3764 16.9451 18.3065C16.9451 18.2367 16.888 18.1801 16.8175 18.1801C16.7471 18.1801 16.6899 18.2367 16.6899 18.3065C16.6899 18.3764 16.7471 18.433 16.8175 18.433Z" fill="white"/>
<path d="M17.5229 18.433C17.5934 18.433 17.6505 18.3764 17.6505 18.3065C17.6505 18.2367 17.5934 18.1801 17.5229 18.1801C17.4524 18.1801 17.3953 18.2367 17.3953 18.3065C17.3953 18.3764 17.4524 18.433 17.5229 18.433Z" fill="white"/>
<path d="M14.7477 20.3547C14.7435 20.5332 14.8107 20.7061 14.9348 20.8354C14.9909 20.8992 15.0602 20.9503 15.138 20.9853C15.2158 21.0202 15.3002 21.0381 15.3856 21.0378C15.5671 21.0266 15.7173 20.9591 15.8364 20.8354C15.9605 20.7061 16.0278 20.5332 16.0236 20.3547V19.444H14.7477V20.3547Z" fill="#003399"/>
<path d="M15.0463 19.9168C15.1168 19.9168 15.1739 19.8602 15.1739 19.7903C15.1739 19.7205 15.1168 19.6638 15.0463 19.6638C14.9759 19.6638 14.9188 19.7205 14.9188 19.7903C14.9188 19.8602 14.9759 19.9168 15.0463 19.9168Z" fill="white"/>
<path d="M15.7517 19.9168C15.8222 19.9168 15.8793 19.8602 15.8793 19.7903C15.8793 19.7205 15.8222 19.6638 15.7517 19.6638C15.6813 19.6638 15.6241 19.7205 15.6241 19.7903C15.6241 19.8602 15.6813 19.9168 15.7517 19.9168Z" fill="white"/>
<path d="M15.3939 20.2541C15.4644 20.2541 15.5215 20.1975 15.5215 20.1276C15.5215 20.0577 15.4644 20.0011 15.3939 20.0011C15.3235 20.0011 15.2664 20.0577 15.2664 20.1276C15.2664 20.1975 15.3235 20.2541 15.3939 20.2541Z" fill="white"/>
<path d="M15.0463 20.6081C15.1168 20.6081 15.1739 20.5515 15.1739 20.4816C15.1739 20.4117 15.1168 20.3551 15.0463 20.3551C14.9759 20.3551 14.9188 20.4117 14.9188 20.4816C14.9188 20.5515 14.9759 20.6081 15.0463 20.6081Z" fill="white"/>
<path d="M15.7517 20.6081C15.8222 20.6081 15.8793 20.5515 15.8793 20.4816C15.8793 20.4117 15.8222 20.3551 15.7517 20.3551C15.6813 20.3551 15.6241 20.4117 15.6241 20.4816C15.6241 20.5515 15.6813 20.6081 15.7517 20.6081Z" fill="white"/>
</g>
</g>
<defs>
<clipPath id="clip0_229_3884">
<rect width="51.0345" height="37.9487" fill="white" transform="translate(-5.03448 -1)"/>
</clipPath>
</defs>
</svg>
