<svg width="398" height="219" viewBox="0 0 398 219" fill="none" xmlns="http://www.w3.org/2000/svg">
<g clip-path="url(#clip0_31_2232)">
<g clip-path="url(#clip1_31_2232)">
<g clip-path="url(#clip2_31_2232)">
<mask id="mask0_31_2232" style="mask-type:luminance" maskUnits="userSpaceOnUse" x="20" y="-13" width="359" height="290">
<path d="M379 -13H20V277H379V-13Z" fill="white"/>
</mask>
<g mask="url(#mask0_31_2232)">
<path fill-rule="evenodd" clip-rule="evenodd" d="M326.628 123.95C328.711 125.328 328.039 128.271 327.231 130.149C323.928 138.581 314.855 142.623 306.98 145.636C304.557 162.952 282.943 183.251 267.592 191.093C266.323 191.578 264.658 192.635 263.289 192.587C261.411 182.511 256.785 172.99 248.72 166.767C264.066 159.341 281.265 147.197 291.771 132.679C292.52 131.257 293.843 129.621 293.331 128.344C289.66 125.479 289.103 118.485 290.922 114.512C295.113 106.625 301.513 114.391 301.167 120.312C302.885 119.974 304.237 118.026 305.144 116.489C304.869 114.171 306.43 110.963 307.03 109.195C308.017 106.303 313.124 102.784 314.543 107.095L315.074 108.267C319.462 102.821 325.195 107.583 324.104 113.63C327.418 112.701 328.074 115.754 328.445 118.372C328.546 120.256 327.524 122.313 326.631 123.952L326.628 123.95Z" fill="#7429FF"/>
<path d="M314.54 107.092C313.31 105.491 311.944 104.976 309.997 105.786C311.747 104.447 313.942 104.97 314.54 107.092Z" fill="#8ADECE"/>
<path d="M314.54 107.092C317.085 112.621 314.663 121.128 309.992 124.773C307.975 126.195 306.294 123.502 308.132 122.391C308.997 121.868 309.752 121.02 310.4 119.843C311.739 117.648 314.1 109.965 311.443 108.455C309.632 109.002 308.564 106.95 309.997 105.786C311.947 104.976 313.308 105.488 314.54 107.092Z" fill="#242140"/>
<path d="M322.874 107.819C326.382 113.332 322.413 123.089 316.378 125.342C314.38 126.168 313.294 123.381 315.127 122.614C325.689 117.308 317.501 106.432 322.874 107.819Z" fill="#242140"/>
<path d="M323.789 109.464C324.181 110.668 324.28 111.934 324.083 113.262C324.104 111.975 324.005 110.708 323.789 109.464Z" fill="#8ADECE"/>
<path d="M328.231 117.705C328.978 119.762 327.532 122.123 326.628 123.95C324.419 127.016 321.655 129.591 318.075 130.978C315.885 131.74 315.14 128.548 317.309 128.019C320.876 126.509 325.054 122.729 325.438 118.475C325.51 117.058 327.303 116.46 328.231 117.705Z" fill="#242140"/>
<path d="M201.381 147.605C195.311 148.525 191.083 153.804 190.835 159.776C188.685 160.567 187.492 162.434 187.444 164.747C187.404 168.631 191.19 170.59 194.242 168.162C194.866 168.819 198.334 169.672 199.118 170.206L195.261 176.102C189.73 177.261 183.65 175.26 179.95 170.893C177.405 168.331 177.48 164.326 178.04 160.927C178.251 159.744 178.691 158.086 178.648 157.198C177.829 157.979 177.208 159.505 175.837 158.641C172.835 155.9 179.697 152.683 181.935 152.485C183.466 151.589 184.992 149.966 186.876 149.625C188.188 148.941 189.69 148.367 190.902 147.541C188.418 147.551 184.99 148.812 182.986 150.094C181.58 151.226 179.694 149.381 180.825 148.01C184.171 145.295 189.52 144.206 193.673 144.324C196.496 144.56 199.022 146.1 201.383 147.605H201.381Z" fill="#1C0753"/>
<path d="M206.324 147.905C204.416 149.266 206.375 150.819 207.372 151.948C208.92 153.056 210.63 150.905 209.661 149.394C212.27 151.114 214.01 153.469 214.882 156.466C210.985 156.64 206.932 156.653 203.195 157.214C203.485 163.497 207.346 166.794 213.503 166.22C210.939 170.386 205.593 173.16 200.823 171.518C200.329 171.365 199.516 171.196 199.158 171.577C196.045 176.365 207.933 175.134 209.957 173.54C210.315 175 210.803 177.165 211.222 178.592C211.377 179.096 211.401 179.423 211.195 179.877C208.226 186.838 196.885 187.866 193.407 180.848C192.894 179.249 194.191 177.669 194.492 176.092C194.527 176.03 195.824 172.116 195.882 171.934C195.888 171.714 196.699 170.075 196.352 169.938C195.498 169.468 194.836 168.562 194.108 168.148C187.898 172.781 184.6 161.815 190.832 159.771C190.963 151.994 198.643 145.703 206.324 147.9V147.905Z" fill="#7429FF"/>
<path d="M214.885 156.466C215.768 159.956 215.309 163.207 213.506 166.222C207.866 166.695 199.382 164.304 200.828 157.225C200.828 157.225 213.946 156.527 214.885 156.466Z" fill="white"/>
<path d="M193.302 164.835C194.287 165.426 194.25 166.686 193.391 167.338C190.923 168.682 189.29 164.54 190.179 162.496C190.891 161.066 193.145 161.611 192.966 163.312C192.918 163.778 192.82 164.543 193.302 164.835Z" fill="#242140"/>
<path d="M210.881 169.235C211.761 169.162 212.345 169.487 212.633 170.201C213.194 172.331 209.931 173.549 208.469 174.168C206.479 175.185 196.501 175.979 199.065 171.746C199.332 171.137 200.276 171.351 200.826 171.518C201.992 172.022 203.598 172.049 204.865 171.88C207.18 171.767 209.048 170.659 210.881 169.235Z" fill="#242140"/>
<path d="M209.661 149.394C210.63 150.905 208.92 153.059 207.372 151.948C206.828 151.31 206.271 150.746 205.742 150.105C204.841 148.724 206.687 147.044 207.991 148.045C208.487 148.557 209.053 148.965 209.661 149.392V149.394Z" fill="#242140"/>
<path d="M200.938 151.122C202.173 153.314 199.236 154.604 198.091 152.364C195.023 150.03 198.926 147.012 200.938 151.122Z" fill="#242140"/>
<path fill-rule="evenodd" clip-rule="evenodd" d="M128.225 125.318C130.628 123.606 133.109 122.254 135.838 123.502C138.311 124.631 139.403 127.947 137.863 130.321C136.071 133.749 132.704 136.038 130.722 139.082C128.126 148.201 152.475 165.23 160.361 168.148C161.945 169.353 164.325 169.471 165.859 170.41C168.85 180.483 165.606 191.31 160.652 200.16C138.317 199.865 115.118 171.625 112.092 150.494C105.375 147.828 100.197 141.218 97.2622 134.549C94.6931 129.133 92.9644 118.045 102.392 122.713C102.384 122.676 102.384 122.641 102.392 122.611C101.731 118.568 101.725 114.443 102.667 110.507C103.934 104.812 108.75 104.369 110.943 109.847C111.009 110.006 111.071 110.003 111.127 109.842C112.415 105.823 114.878 99.5703 119.642 98.8969C123.807 98.8755 124.484 103.862 124.463 107.154C126.48 105.204 129.537 105.263 131.282 107.243C133.931 110.408 131.338 116.675 130.279 120.191C131.821 121.922 128.633 124.146 128.225 125.323V125.318Z" fill="#7429FF"/>
<path d="M112.316 106.446C112.607 104.992 114.221 102.559 115.699 104.321C116.041 104.737 116.081 105.383 115.843 105.877C115.08 107.462 114.517 109.383 114.155 111.634C113.408 116.908 113.207 123.075 115.568 127.942C116.473 129.556 114.408 131.091 113.218 129.766C109.467 122.694 110.265 114.102 112.314 106.448L112.316 106.446Z" fill="#242140"/>
<path d="M127.563 105.689C129.244 106.07 129.273 108.24 127.731 108.702C121.979 111.704 121.045 120.213 121.451 126.021C121.68 128.266 118.65 128.5 118.468 126.421C117.967 119.033 119.549 108.031 127.563 105.687V105.689Z" fill="#242140"/>
<path d="M102.392 122.71C102.384 122.673 102.384 122.638 102.392 122.608C102.363 119.741 101.464 116.425 102.632 113.74C103.657 112.592 105.53 113.643 105.22 115.132C104.908 118.469 105.199 122 106.093 125.72C106.53 127.539 107.162 129.218 107.989 130.758C108.67 132.354 111.604 133.816 109.334 135.3C105.207 136.29 102.945 125.6 102.392 122.713V122.71Z" fill="#242140"/>
<path d="M130.279 120.183C131.821 121.914 128.633 124.138 128.225 125.315C127.355 126.463 126.733 127.845 126.13 129.224C125.063 131.563 126.298 130.764 126.363 132.494C125.226 136.408 121.48 132.462 123.07 128.888C123.98 126.056 126.368 122.464 128.043 120.393C128.641 119.66 129.385 119.591 130.281 120.183H130.279Z" fill="#242140"/>
<path fill-rule="evenodd" clip-rule="evenodd" d="M251.842 235.09C254.798 251.183 255.43 268.4 252.594 284.547H134.483C138.68 275.496 146.059 266.651 151.245 258.984C156.463 251.425 160.966 241.794 162.586 232.579C162.914 228.301 163.573 227.08 157.311 225.76C137.981 221.13 133.035 211.175 139.861 192.496L142.433 194.229C135.457 213.034 144.063 222.093 157.824 204.407C164.592 195.149 169.247 181.961 165.862 170.41C164.33 169.468 161.945 169.353 160.363 168.148C166.953 164.64 168.004 169.195 172.499 171.928C177.877 174.099 183.648 174.662 189.234 176.068C191.003 176.524 192.748 175.92 194.498 176.094C194.196 177.672 192.902 179.246 193.412 180.851C195.002 184.019 198.382 185.728 201.877 185.661C206.78 185.65 213.17 181.578 210.598 176.124C222.165 175.239 234.688 173.97 244.932 168.342C255.502 155.401 275.508 202.861 262.492 208.841C258.578 210.55 251.362 217.704 248.552 219.099C248.558 219.121 248.558 219.126 248.552 219.113C250.081 224.253 251.773 229.612 251.85 235.096L251.842 235.09Z" fill="#FDF1D9"/>
<path d="M142.43 194.229C147.923 197.63 154.059 200.404 160.651 200.157C149.287 219.266 133.875 219.338 142.43 194.229Z" fill="#4A22B6"/>
<path d="M248.547 219.097C250.062 224.242 251.77 229.604 251.842 235.09C250.844 236.308 249.257 235.981 248.987 234.396C248.224 229.859 247.056 222.984 244.983 218.354C244.3 216.379 243.025 214.603 242.518 212.602C242.462 211.049 244.612 210.547 245.276 211.864C246.528 214.327 247.637 216.859 248.544 219.094L248.547 219.097Z" fill="#242140"/>
<path d="M297.109 85.0359C290.008 68.1247 278.211 53.8237 262.996 43.6754C247.782 33.5298 230.089 28.1672 211.833 28.1672C193.578 28.1672 175.885 33.5298 160.67 43.6754C145.456 53.821 133.659 68.1247 126.557 85.0359L124.1 83.9923C131.407 66.5929 143.543 51.8788 159.198 41.4408C174.85 31.0027 193.052 25.4846 211.833 25.4846C230.615 25.4846 248.817 31.0027 264.469 41.4408C280.121 51.8788 292.259 66.5929 299.566 83.9923L297.109 85.0359Z" fill="#242140"/>
<path d="M144.263 75.4294C144.642 68.1946 139.116 62.0211 131.921 61.6407C124.726 61.2603 118.587 66.8169 118.208 74.0518C117.83 81.2866 123.356 87.46 130.551 87.8404C137.746 88.2209 143.885 82.6643 144.263 75.4294Z" fill="#F4B840"/>
<mask id="mask1_31_2232" style="mask-type:luminance" maskUnits="userSpaceOnUse" x="118" y="61" width="27" height="27">
<path d="M144.263 75.4294C144.642 68.1946 139.116 62.0211 131.921 61.6407C124.726 61.2603 118.587 66.8169 118.208 74.0518C117.83 81.2866 123.356 87.46 130.551 87.8404C137.746 88.2209 143.885 82.6643 144.263 75.4294Z" fill="white"/>
</mask>
<g mask="url(#mask1_31_2232)">
<path d="M144.288 61.6221H118.055V87.8553H144.288V61.6221Z" fill="white"/>
<path d="M137.255 74.7427C137.255 78.1201 134.531 80.859 131.173 80.859C127.814 80.859 125.09 78.1201 125.09 74.7427C125.09 71.3653 127.814 68.6263 131.173 68.6263C134.531 68.6263 137.255 71.3653 137.255 74.7427Z" fill="#FF0014"/>
</g>
<path d="M305.424 75.8201C306.018 68.6 300.679 62.2625 293.498 61.6651C286.318 61.0677 280.016 66.4365 279.422 73.6567C278.828 80.8769 284.167 87.2143 291.347 87.8117C298.527 88.4091 304.83 83.0403 305.424 75.8201Z" fill="#F4B840"/>
<mask id="mask2_31_2232" style="mask-type:luminance" maskUnits="userSpaceOnUse" x="279" y="61" width="27" height="27">
<path d="M305.424 75.8201C306.018 68.6 300.679 62.2625 293.498 61.6651C286.318 61.0677 280.016 66.4365 279.422 73.6567C278.828 80.8769 284.167 87.2143 291.347 87.8117C298.527 88.4091 304.83 83.0403 305.424 75.8201Z" fill="white"/>
</mask>
<g mask="url(#mask2_31_2232)">
<path d="M305.619 61.6221H279.387V87.8553H305.619V61.6221Z" fill="#242140"/>
<path d="M305.619 74.3027H279.387V87.8553H305.619V74.3027Z" fill="#F4B840"/>
<path d="M305.635 70.2494H279.387V79.0779H305.635V70.2494Z" fill="#FF0014"/>
</g>
<path d="M159.971 55.7806C167.172 55.5568 172.829 49.5051 172.607 42.2637C172.384 35.0223 166.366 29.3334 159.165 29.5572C151.963 29.781 146.306 35.8327 146.528 43.0741C146.751 50.3155 152.769 56.0044 159.971 55.7806Z" fill="#F4B840"/>
<mask id="mask3_31_2232" style="mask-type:luminance" maskUnits="userSpaceOnUse" x="146" y="29" width="27" height="27">
<path d="M159.971 55.7806C167.172 55.5568 172.829 49.5051 172.607 42.2637C172.384 35.0223 166.366 29.3334 159.165 29.5572C151.963 29.781 146.306 35.8327 146.528 43.0741C146.751 50.3155 152.769 56.0044 159.971 55.7806Z" fill="white"/>
</mask>
<g mask="url(#mask3_31_2232)">
<path d="M172.611 29.5996V55.7604H146.768V29.5996H172.611Z" fill="#4A22B6"/>
<path d="M172.611 53.0296V55.7578H169.919L161.988 47.7287L161.193 46.924L160.257 45.9743L159.942 45.6551L158.989 44.692L158.635 44.3299L158.336 44.0294L157.736 43.4258L157.544 43.2273L157.25 42.9322L154.433 40.0753L153.166 38.7957L146.768 32.3198V29.5943L146.79 29.5433L146.84 29.5943H149.457L157.541 37.7736L158.333 38.581L158.547 38.793L159.814 40.0726L159.939 40.204L160.425 40.6949L161.19 41.4675L161.321 41.6017L161.985 42.2723L162.634 42.9269L164.373 44.6867L165.64 45.9663L172.611 53.0215V53.0296Z" fill="white"/>
<path d="M172.614 55.6773L172.619 55.7739L170.89 55.7578L161.988 46.7469L161.23 45.9743L161.196 45.9394L160.43 45.1668L159.966 44.6947L159.12 43.839L158.336 43.0503L158.224 42.9349L157.736 42.4386L157.544 42.2455L155.407 40.0806L154.142 38.801L146.771 31.3353V29.5406L146.792 29.5487L146.843 29.5997L155.935 38.801L157.199 40.0806L157.546 40.4294L158.339 41.2368L158.637 41.5373L159.123 42.0309L160.019 42.9376L161.198 44.1287L161.329 44.2628L161.761 44.6974L161.993 44.9335L163.026 45.977L172.619 55.68L172.614 55.6773Z" fill="#FF0014"/>
<path d="M172.611 30.1148V32.835L166.718 38.7957L165.454 40.0753L162.634 42.9323L161.985 43.5842L161.321 44.2575L161.19 44.3889L160.892 44.6921L160.425 45.1642L159.939 45.6525L159.624 45.9717L158.333 47.2808L157.541 48.0883L149.962 55.7578H146.768V53.542L154.246 45.9744L155.511 44.6948L157.25 42.935L157.544 42.6399L157.736 42.4387L158.336 41.8324L158.635 41.5373L159.942 40.2094L160.067 40.078L161.193 38.9406L161.337 38.7957L161.988 38.1358L170.426 29.5944H172.406L172.609 30.1121L172.611 30.1148Z" fill="white"/>
<path d="M172.544 30.2488L164.098 38.7983L162.831 40.0779L161.988 40.9363L161.324 41.6097L161.193 41.7411L160.014 42.9349L159.117 43.8389L158.632 44.3325L158.333 44.6329L158.274 44.6947L157.541 45.4377L157.007 45.9743L147.347 55.7577H146.766V54.5318L155.215 45.9743L156.482 44.6947L157.541 43.6243L157.733 43.4285L158.221 42.9349L158.333 42.8195L159.117 42.0308L160.425 40.7029L161.038 40.0806L161.19 39.9277L161.985 39.1202L162.305 38.7983L171.392 29.5969H172.608V30.171L172.542 30.2488H172.544Z" fill="#FF0014"/>
<path d="M172.625 38.7983H146.747V45.9743H172.625V38.7983Z" fill="white"/>
<path d="M172.625 40.0806H146.747V44.6947H172.625V40.0806Z" fill="#FF0014"/>
<path d="M161.193 29.5996H158.336V55.7604H161.193V29.5996Z" fill="#D01F33"/>
<path d="M161.188 45.9743H161.983V55.7577H157.538V45.9743H158.333V38.7983H157.538V29.5969H161.983V38.7983H161.188V45.9743Z" fill="white"/>
<path d="M161.201 29.5996H158.315V55.7604H161.201V29.5996Z" fill="#FF0014"/>
</g>
<path d="M264.095 55.7767C271.3 55.7767 277.141 49.9036 277.141 42.6587C277.141 35.4139 271.3 29.5408 264.095 29.5408C256.89 29.5408 251.05 35.4139 251.05 42.6587C251.05 49.9036 256.89 55.7767 264.095 55.7767Z" fill="#F4B840"/>
<mask id="mask4_31_2232" style="mask-type:luminance" maskUnits="userSpaceOnUse" x="251" y="29" width="27" height="27">
<path d="M264.095 55.7767C271.3 55.7767 277.141 49.9036 277.141 42.6587C277.141 35.4139 271.3 29.5408 264.095 29.5408C256.89 29.5408 251.05 35.4139 251.05 42.6587C251.05 49.9036 256.89 55.7767 264.095 55.7767Z" fill="white"/>
</mask>
<g mask="url(#mask4_31_2232)">
<path d="M277.325 29.5408H251.063V55.774H277.325V29.5408Z" fill="#277F59"/>
<path d="M277.325 29.5408H264.698V55.774H277.325V29.5408Z" fill="#FF0014"/>
<path d="M268.668 29.5811H259.792V55.6721H268.668V29.5811Z" fill="white"/>
</g>
<path d="M211.833 49.4216C224.245 49.4216 234.307 39.304 234.307 26.8233C234.307 14.3426 224.245 4.22498 211.833 4.22498C199.422 4.22498 189.36 14.3426 189.36 26.8233C189.36 39.304 199.422 49.4216 211.833 49.4216Z" fill="#F4B840"/>
<mask id="mask5_31_2232" style="mask-type:luminance" maskUnits="userSpaceOnUse" x="189" y="4" width="46" height="46">
<path d="M211.833 49.4216C224.245 49.4216 234.307 39.304 234.307 26.8233C234.307 14.3426 224.245 4.22498 211.833 4.22498C199.422 4.22498 189.36 14.3426 189.36 26.8233C189.36 39.304 199.422 49.4216 211.833 49.4216Z" fill="white"/>
</mask>
<g mask="url(#mask5_31_2232)">
<path d="M234.323 4.21716H189.373V49.4164H234.323V4.21716Z" fill="#354EA0"/>
<path d="M234.323 4.21704H212.708V49.4163H234.323V4.21704Z" fill="#FF0014"/>
<path d="M219.503 4.28137H204.316V49.2392H219.503V4.28137Z" fill="white"/>
</g>
<path d="M116.836 49.089H61.6232C60.8869 49.089 60.2893 48.4881 60.2893 47.7477C60.2893 47.0073 60.8869 46.4064 61.6232 46.4064H116.838C117.575 46.4064 118.172 47.0073 118.172 47.7477C118.172 48.4881 117.575 49.089 116.838 49.089H116.836Z" fill="#7429FF"/>
<path d="M228.083 102.752H157.592C156.855 102.752 156.258 102.151 156.258 101.411C156.258 100.67 156.855 100.069 157.592 100.069H228.083C228.819 100.069 229.417 100.67 229.417 101.411C229.417 102.151 228.819 102.752 228.083 102.752Z" fill="#7429FF"/>
<path d="M108.998 216.723H53.7826C53.0463 216.723 52.4487 216.122 52.4487 215.381C52.4487 214.641 53.0463 214.04 53.7826 214.04H108.998C109.734 214.04 110.332 214.641 110.332 215.381C110.332 216.122 109.734 216.723 108.998 216.723Z" fill="#7429FF"/>
<path d="M255.894 113.721H200.679C199.943 113.721 199.345 113.12 199.345 112.38C199.345 111.639 199.943 111.038 200.679 111.038H255.894C256.631 111.038 257.228 111.639 257.228 112.38C257.228 113.12 256.631 113.721 255.894 113.721Z" fill="#7429FF"/>
<path d="M345.065 10.6954H289.85C289.114 10.6954 288.516 10.0945 288.516 9.35412C288.516 8.61372 289.114 8.01282 289.85 8.01282H345.065C345.802 8.01282 346.399 8.61372 346.399 9.35412C346.399 10.0945 345.802 10.6954 345.065 10.6954Z" fill="#7429FF"/>
<path d="M345.062 20.6211H310.515C309.778 20.6211 309.181 20.0202 309.181 19.2798C309.181 18.5394 309.778 17.9385 310.515 17.9385H345.062C345.799 17.9385 346.396 18.5394 346.396 19.2798C346.396 20.0202 345.799 20.6211 345.062 20.6211Z" fill="#7429FF"/>
<path d="M157.754 15.543H102.539C101.803 15.543 101.205 14.9421 101.205 14.2017C101.205 13.4613 101.803 12.8604 102.539 12.8604H157.754C158.491 12.8604 159.088 13.4613 159.088 14.2017C159.088 14.9421 158.491 15.543 157.754 15.543Z" fill="#7429FF"/>
</g>
</g>
</g>
</g>
<defs>
<clipPath id="clip0_31_2232">
<rect width="398" height="219" fill="white"/>
</clipPath>
<clipPath id="clip1_31_2232">
<rect x="10" width="398" height="219" rx="10" fill="white"/>
</clipPath>
<clipPath id="clip2_31_2232">
<rect width="312" height="254" fill="white" transform="translate(53)"/>
</clipPath>
</defs>
</svg>
