<svg width="24" height="24" viewBox="0 0 24 24" fill="none" xmlns="http://www.w3.org/2000/svg">
<path d="M11.562 3.26617C11.6052 3.18777 11.6686 3.1224 11.7456 3.07687C11.8227 3.03134 11.9105 3.00732 12 3.00732C12.0895 3.00732 12.1773 3.03134 12.2544 3.07687C12.3314 3.1224 12.3948 3.18777 12.438 3.26617L15.39 8.87017C15.4604 8.99993 15.5586 9.1125 15.6777 9.19979C15.7968 9.28708 15.9337 9.34692 16.0786 9.37503C16.2235 9.40313 16.3729 9.3988 16.5159 9.36235C16.659 9.32589 16.7922 9.25821 16.906 9.16417L21.183 5.50017C21.2651 5.43339 21.3663 5.39439 21.472 5.38877C21.5776 5.38315 21.6824 5.41121 21.7711 5.46891C21.8598 5.52662 21.9279 5.61098 21.9657 5.70986C22.0034 5.80874 22.0087 5.91704 21.981 6.01917L19.147 16.2652C19.0891 16.4748 18.9645 16.6599 18.792 16.7924C18.6195 16.9248 18.4085 16.9974 18.191 16.9992H5.81C5.59233 16.9977 5.38111 16.9252 5.20839 16.7927C5.03567 16.6602 4.91089 16.475 4.853 16.2652L2.02 6.02017C1.99225 5.91804 1.99762 5.80974 2.03534 5.71086C2.07306 5.61198 2.14118 5.52761 2.2299 5.46991C2.31862 5.41221 2.42335 5.38415 2.52904 5.38977C2.63472 5.39539 2.73589 5.43439 2.818 5.50117L7.094 9.16517C7.2078 9.25921 7.341 9.32689 7.48406 9.36335C7.62712 9.3998 7.77647 9.40413 7.9214 9.37603C8.06632 9.34792 8.20323 9.28808 8.32229 9.20079C8.44135 9.1135 8.5396 9.00093 8.61 8.87117L11.562 3.26617Z" stroke="black" stroke-width="2" stroke-linecap="round" stroke-linejoin="round"/>
<path d="M5 21H19" stroke="black" stroke-width="2" stroke-linecap="round" stroke-linejoin="round"/>
</svg>
