<svg width="24" height="24" viewBox="0 0 24 24" fill="none" xmlns="http://www.w3.org/2000/svg">
<path d="M14 18C14 17.4696 13.7893 16.9609 13.4142 16.5858C13.0391 16.2107 12.5304 16 12 16C11.4696 16 10.9609 16.2107 10.5858 16.5858C10.2107 16.9609 10 17.4696 10 18" stroke="black" stroke-width="2" stroke-linecap="round" stroke-linejoin="round"/>
<path d="M19 11.0002L16.89 4.34317C16.7976 4.07731 16.6502 3.83394 16.4573 3.62897C16.2645 3.42399 16.0305 3.26203 15.7708 3.15368C15.511 3.04532 15.2313 2.99301 14.9499 3.00016C14.6686 3.00731 14.3919 3.07376 14.138 3.19517L12.862 3.80517C12.5928 3.93364 12.2983 4.00026 12 4.00017H8.5C8.06434 4.00008 7.64057 4.14225 7.29311 4.40506C6.94565 4.66787 6.6935 5.03694 6.575 5.45617L5 11.0002" stroke="black" stroke-width="2" stroke-linecap="round" stroke-linejoin="round"/>
<path d="M2 11H22" stroke="black" stroke-width="2" stroke-linecap="round" stroke-linejoin="round"/>
<path d="M17 21C18.6569 21 20 19.6569 20 18C20 16.3431 18.6569 15 17 15C15.3431 15 14 16.3431 14 18C14 19.6569 15.3431 21 17 21Z" stroke="black" stroke-width="2" stroke-linecap="round" stroke-linejoin="round"/>
<path d="M7 21C8.65685 21 10 19.6569 10 18C10 16.3431 8.65685 15 7 15C5.34315 15 4 16.3431 4 18C4 19.6569 5.34315 21 7 21Z" stroke="black" stroke-width="2" stroke-linecap="round" stroke-linejoin="round"/>
</svg>
