<svg width="24" height="24" viewBox="0 0 24 24" fill="none" xmlns="http://www.w3.org/2000/svg">
<g clip-path="url(#clip0_113_6218)">
<path d="M14 13L5.619 21.38C5.42202 21.5771 5.18815 21.7334 4.93076 21.8401C4.67336 21.9467 4.39748 22.0017 4.11885 22.0017C3.55615 22.0018 3.01646 21.7783 2.6185 21.3805C2.22054 20.9827 1.99692 20.4431 1.99683 19.8804C1.99673 19.3177 2.22018 18.778 2.618 18.38L11 9.99902" stroke="black" stroke-width="2" stroke-linecap="round" stroke-linejoin="round"/>
<path d="M15.973 4.02702C14.4927 3.08619 12.8374 2.45464 11.1066 2.17039C9.37583 1.88614 7.60544 1.95506 5.902 2.37302C4.504 2.71502 4.81 4.53102 6.179 4.97402C8.27361 5.65298 10.241 6.67486 12.001 7.99802" stroke="black" stroke-width="2" stroke-linecap="round" stroke-linejoin="round"/>
<path d="M16.001 11.9988C17.3244 13.7595 18.3462 15.7275 19.025 17.8228C19.469 19.1918 21.285 19.4988 21.628 18.1008C22.0443 16.405 22.1147 14.6428 21.835 12.9192C21.5553 11.1956 20.9312 9.54598 20 8.06885" stroke="black" stroke-width="2" stroke-linecap="round" stroke-linejoin="round"/>
<path d="M18.352 3.3519C18.126 3.12595 17.8196 2.99902 17.5 2.99902C17.1804 2.99902 16.874 3.12595 16.648 3.3519L11.352 8.6479C11.1261 8.87387 10.9991 9.18034 10.9991 9.4999C10.9991 9.81945 11.1261 10.1259 11.352 10.3519L13.648 12.6479C13.874 12.8738 14.1804 13.0008 14.5 13.0008C14.8196 13.0008 15.126 12.8738 15.352 12.6479L20.648 7.3519C20.8739 7.12592 21.0009 6.81945 21.0009 6.4999C21.0009 6.18034 20.8739 5.87387 20.648 5.6479L18.352 3.3519Z" stroke="black" stroke-width="2" stroke-linecap="round" stroke-linejoin="round"/>
</g>
<defs>
<clipPath id="clip0_113_6218">
<rect width="24" height="24" fill="white"/>
</clipPath>
</defs>
</svg>
