<svg width="23" height="23" viewBox="0 0 23 23" fill="none" xmlns="http://www.w3.org/2000/svg">
<g clip-path="url(#clip0_25_1759)">
<path d="M23 20.2713C23 22.5184 22.125 24.6314 20.5361 26.2192C20.3493 26.4061 20.1039 26.5 19.8586 26.5C19.6132 26.5 19.3679 26.4061 19.181 26.2192C18.8063 25.8445 18.8063 25.2389 19.181 24.8642C20.4077 23.6377 21.0833 22.0067 21.0833 20.2713C21.0833 18.5359 20.4077 16.9049 19.181 15.6783C18.8063 15.3036 18.8063 14.698 19.181 14.3233C19.5557 13.9486 20.1614 13.9486 20.5361 14.3233C22.125 15.9112 23 18.0241 23 20.2713ZM17.8125 17.0065C17.4378 16.6318 16.8322 16.6318 16.4575 17.0065C16.0828 17.3811 16.0828 17.9868 16.4575 18.3614C17.5107 19.4146 17.5107 21.1289 16.4575 22.1811C16.0828 22.5558 16.0828 23.1614 16.4575 23.5361C16.6443 23.7229 16.8897 23.8169 17.135 23.8169C17.3803 23.8169 17.6257 23.7229 17.8125 23.5361C19.6132 21.7355 19.6132 18.8061 17.8125 17.0065ZM1.3915 3.60319C1.18163 3.63098 0.974625 3.66644 0.769542 3.70764C0.251083 3.81305 -0.0852917 4.31806 0.0191667 4.83744C0.123625 5.35586 0.623875 5.69317 1.14808 5.58776C1.31483 5.55422 1.48446 5.52643 1.65313 5.50248C4.82904 5.06263 7.86217 6.33138 9.79704 8.9139C11.0611 10.4768 13.3381 15.1867 13.4167 15.96H12.26C11.7798 15.96 11.3725 16.3165 11.3103 16.7928L10.9902 19.2114C10.8023 20.6354 9.57662 21.7087 8.14008 21.7087H6.70833C6.17933 21.7087 5.75 22.137 5.75 22.6669V23.6252C5.75 24.1542 5.31971 24.5835 4.79167 24.5835H0.958333C0.429333 24.5835 0 25.0118 0 25.5417C0 26.0717 0.429333 26.5 0.958333 26.5H4.79167C6.37675 26.5 7.66667 25.2102 7.66667 23.6252H8.14008C10.535 23.6252 12.5772 21.8352 12.8905 19.4615L13.1004 17.8756H13.4167C14.6615 17.8756 15.3333 16.8886 15.3333 15.9591C15.3333 14.5983 12.5235 9.23684 11.3083 7.7362C8.97287 4.61704 5.26796 3.07136 1.3915 3.60319Z" fill="#7429FF"/>
</g>
<defs>
<clipPath id="clip0_25_1759">
<rect width="23" height="23" fill="white"/>
</clipPath>
</defs>
</svg>
