<svg width="20" height="20" viewBox="0 0 20 20" fill="none" xmlns="http://www.w3.org/2000/svg">
<path fill-rule="evenodd" clip-rule="evenodd" d="M16.6922 9.19161C16.575 9.30865 16.4162 9.37439 16.2506 9.37439C16.0849 9.37439 15.9261 9.30865 15.8089 9.19161L10.6256 4.00827L10.6256 17.4999C10.6256 17.6657 10.5597 17.8247 10.4425 17.9419C10.3253 18.0591 10.1663 18.1249 10.0006 18.1249C9.83479 18.1249 9.67582 18.0591 9.55861 17.9419C9.4414 17.8247 9.37555 17.6657 9.37555 17.4999L9.37555 4.00827L4.19222 9.19161C4.135 9.25301 4.066 9.30226 3.98933 9.33642C3.91267 9.37058 3.82991 9.38895 3.74599 9.39043C3.66207 9.39191 3.57871 9.37648 3.50089 9.34504C3.42306 9.31361 3.35237 9.26682 3.29302 9.20747C3.23367 9.14812 3.18688 9.07743 3.15545 8.9996C3.12401 8.92178 3.10858 8.83842 3.11006 8.7545C3.11154 8.67058 3.12991 8.58782 3.16407 8.51116C3.19823 8.43449 3.24748 8.36549 3.30888 8.30827L9.55888 2.05827C9.67607 1.94123 9.83493 1.87549 10.0006 1.87549C10.1662 1.87549 10.325 1.94123 10.4422 2.05827L16.6922 8.30827C16.8093 8.42546 16.875 8.58431 16.875 8.74994C16.875 8.91556 16.8093 9.07442 16.6922 9.19161Z" fill="white"/>
</svg>
