<svg width="20" height="20" viewBox="0 0 20 20" fill="none" xmlns="http://www.w3.org/2000/svg">
<g clip-path="url(#clip0_31_1948)">
<g opacity="0.5" filter="url(#filter0_d_31_1948)">
<path d="M7.99333 2.66662C7.8618 2.78466 7.72411 2.89565 7.58083 2.99912C7.33249 3.16579 7.05333 3.28079 6.75999 3.33912C6.63249 3.36412 6.49916 3.37495 6.23333 3.39579C5.56583 3.44912 5.23166 3.47579 4.95333 3.57412C4.63499 3.68633 4.34585 3.86846 4.10718 4.10714C3.8685 4.34581 3.68637 4.63495 3.57416 4.95329C3.47583 5.23162 3.44916 5.56579 3.39583 6.23329C3.38626 6.40972 3.36734 6.58552 3.33916 6.75995C3.28083 7.05329 3.16583 7.33245 2.99916 7.58079C2.92666 7.68912 2.84 7.79079 2.66666 7.99329C2.2325 8.50329 2.015 8.75829 1.8875 9.02495C1.59333 9.64162 1.59333 10.3583 1.8875 10.975C2.015 11.2416 2.2325 11.4966 2.66666 12.0066C2.84 12.2091 2.92666 12.3108 2.99916 12.4191C3.16583 12.6675 3.28083 12.9466 3.33916 13.24C3.36416 13.3675 3.37499 13.5008 3.39583 13.7666C3.44916 14.4341 3.47583 14.7683 3.57416 15.0466C3.68637 15.365 3.8685 15.6541 4.10718 15.8928C4.34585 16.1314 4.63499 16.3136 4.95333 16.4258C5.23166 16.5241 5.56583 16.5508 6.23333 16.6041C6.49916 16.625 6.63249 16.6358 6.75999 16.6608C7.05333 16.7191 7.33249 16.835 7.58083 17.0008C7.68916 17.0733 7.79083 17.16 7.99333 17.3333C8.50333 17.7675 8.75833 17.985 9.02499 18.1125C9.64166 18.4066 10.3583 18.4066 10.975 18.1125C11.2417 17.985 11.4967 17.7675 12.0067 17.3333C12.2092 17.16 12.3108 17.0733 12.4192 17.0008C12.6675 16.8341 12.9467 16.7191 13.24 16.6608C13.3675 16.6358 13.5008 16.625 13.7667 16.6041C14.4342 16.5508 14.7683 16.5241 15.0467 16.4258C15.365 16.3136 15.6541 16.1314 15.8928 15.8928C16.1315 15.6541 16.3136 15.365 16.4258 15.0466C16.5242 14.7683 16.5508 14.4341 16.6042 13.7666C16.625 13.5008 16.6358 13.3675 16.6608 13.24C16.7192 12.9466 16.835 12.6675 17.0008 12.4191C17.0733 12.3108 17.16 12.2091 17.3333 12.0066C17.7675 11.4966 17.985 11.2416 18.1125 10.975C18.4067 10.3583 18.4067 9.64162 18.1125 9.02495C17.985 8.75829 17.7675 8.50329 17.3333 7.99329C17.2153 7.86176 17.1043 7.72407 17.0008 7.58079C16.8341 7.33249 16.7185 7.05344 16.6608 6.75995C16.6326 6.58552 16.6137 6.40972 16.6042 6.23329C16.5508 5.56579 16.5242 5.23162 16.4258 4.95329C16.3136 4.63495 16.1315 4.34581 15.8928 4.10714C15.6541 3.86846 15.365 3.68633 15.0467 3.57412C14.7683 3.47579 14.4342 3.44912 13.7667 3.39579C13.5902 3.38622 13.4144 3.3673 13.24 3.33912C12.9465 3.28147 12.6675 3.16588 12.4192 2.99912C12.2759 2.89565 12.1382 2.78466 12.0067 2.66662C11.4967 2.23245 11.2417 2.01495 10.975 1.88745C10.6706 1.74176 10.3374 1.66614 10 1.66614C9.66254 1.66614 9.32938 1.74176 9.02499 1.88745C8.75833 2.01495 8.50333 2.23245 7.99333 2.66662Z" fill="#7429FF"/>
</g>
<path d="M13.645 8.21914C13.7686 8.09121 13.837 7.91985 13.8354 7.74197C13.8339 7.56409 13.7626 7.39392 13.6368 7.26814C13.511 7.14235 13.3408 7.07101 13.163 7.06948C12.9851 7.06796 12.8137 7.13636 12.6858 7.25997L8.64413 11.3016L7.31496 9.97247C7.18703 9.84886 7.01567 9.78046 6.83779 9.78198C6.65991 9.78351 6.48975 9.85485 6.36396 9.98064C6.23818 10.1064 6.16684 10.2766 6.16531 10.4545C6.16378 10.6323 6.23219 10.8037 6.35579 10.9316L8.16413 12.74C8.2913 12.8669 8.46363 12.9382 8.64329 12.9382C8.82296 12.9382 8.99529 12.8669 9.12246 12.74L13.645 8.21914Z" fill="#7429FF"/>
</g>
<defs>
<filter id="filter0_d_31_1948" x="0.66687" y="1.66614" width="18.6663" height="18.667" filterUnits="userSpaceOnUse" color-interpolation-filters="sRGB">
<feFlood flood-opacity="0" result="BackgroundImageFix"/>
<feColorMatrix in="SourceAlpha" type="matrix" values="0 0 0 0 0 0 0 0 0 0 0 0 0 0 0 0 0 0 127 0" result="hardAlpha"/>
<feOffset dy="1"/>
<feGaussianBlur stdDeviation="0.5"/>
<feComposite in2="hardAlpha" operator="out"/>
<feColorMatrix type="matrix" values="0 0 0 0 0 0 0 0 0 0 0 0 0 0 0 0 0 0 0.05 0"/>
<feBlend mode="normal" in2="BackgroundImageFix" result="effect1_dropShadow_31_1948"/>
<feBlend mode="normal" in="SourceGraphic" in2="effect1_dropShadow_31_1948" result="shape"/>
</filter>
<clipPath id="clip0_31_1948">
<rect width="20" height="20" fill="white"/>
</clipPath>
</defs>
</svg>
