<svg width="36" height="36" viewBox="0 0 36 36" fill="none" xmlns="http://www.w3.org/2000/svg">
<g clip-path="url(#clip0_221_790)">
<mask id="mask0_221_790" style="mask-type:luminance" maskUnits="userSpaceOnUse" x="0" y="0" width="36" height="36">
<path d="M36 0H0V36H36V0Z" fill="white"/>
</mask>
<g mask="url(#mask0_221_790)">
<path d="M31.725 9.255C31.11 8.925 29.82 8.58 28.065 9.81L25.86 11.37C25.695 6.705 23.67 4.875 18.75 4.875H9.75C4.62 4.875 2.625 6.87 2.625 12V24C2.625 27.45 4.5 31.125 9.75 31.125H18.75C23.67 31.125 25.695 29.295 25.86 24.63L28.065 26.19C28.995 26.85 29.805 27.06 30.45 27.06C31.005 27.06 31.44 26.895 31.725 26.745C32.34 26.43 33.375 25.575 33.375 23.43V12.57C33.375 10.425 32.34 9.57 31.725 9.255ZM16.5 17.07C14.955 17.07 13.68 15.81 13.68 14.25C13.68 12.69 14.955 11.43 16.5 11.43C18.045 11.43 19.32 12.69 19.32 14.25C19.32 15.81 18.045 17.07 16.5 17.07Z" fill="white"/>
</g>
</g>
<defs>
<clipPath id="clip0_221_790">
<rect width="36" height="36" fill="white"/>
</clipPath>
</defs>
</svg>
