<svg width="36" height="36" viewBox="0 0 36 36" fill="none" xmlns="http://www.w3.org/2000/svg">
<g clip-path="url(#clip0_71_5063)">
<mask id="mask0_71_5063" style="mask-type:luminance" maskUnits="userSpaceOnUse" x="0" y="0" width="36" height="36">
<path d="M36 0H0V36H36V0Z" fill="white"/>
</mask>
<g mask="url(#mask0_71_5063)">
<path d="M26.9999 25.1255C26.7599 25.1255 26.5349 25.0505 26.3249 24.9005C25.8299 24.5255 25.7249 23.8205 26.0999 23.3255C28.4549 20.1905 28.4549 15.8105 26.0999 12.6754C25.7249 12.1804 25.8299 11.4754 26.3249 11.1004C26.8199 10.7254 27.5249 10.8304 27.8999 11.3254C30.8399 15.2555 30.8399 20.7455 27.8999 24.6755C27.6749 24.9755 27.3449 25.1255 26.9999 25.1255Z" fill="white"/>
<path d="M29.745 28.8755C29.505 28.8755 29.28 28.8005 29.07 28.6505C28.575 28.2755 28.47 27.5705 28.845 27.0755C32.85 21.7355 32.85 14.2654 28.845 8.92541C28.47 8.43041 28.575 7.72541 29.07 7.35041C29.565 6.97541 30.27 7.08041 30.645 7.57541C35.25 13.7104 35.25 22.2905 30.645 28.4255C30.435 28.7255 30.09 28.8755 29.745 28.8755Z" fill="white"/>
<path d="M21.03 5.66959C19.35 4.73959 17.205 4.97959 15.015 6.34459L10.635 9.08959C10.335 9.26959 9.99 9.37459 9.645 9.37459H8.25H7.5C3.87 9.37459 1.875 11.3696 1.875 14.9996V20.9996C1.875 24.6296 3.87 26.6246 7.5 26.6246H8.25H9.645C9.99 26.6246 10.335 26.7296 10.635 26.9096L15.015 29.6546C16.335 30.4796 17.625 30.8846 18.825 30.8846C19.605 30.8846 20.355 30.7046 21.03 30.3296C22.695 29.3996 23.625 27.4646 23.625 24.8846V11.1146C23.625 8.53459 22.695 6.59959 21.03 5.66959Z" fill="white"/>
</g>
</g>
<defs>
<clipPath id="clip0_71_5063">
<rect width="36" height="36" fill="white"/>
</clipPath>
</defs>
</svg>
