<svg width="36" height="36" viewBox="0 0 36 36" fill="none" xmlns="http://www.w3.org/2000/svg">
<g clip-path="url(#clip0_126_7673)">
<mask id="mask0_126_7673" style="mask-type:luminance" maskUnits="userSpaceOnUse" x="0" y="0" width="36" height="36">
<path d="M36 0H0V36H36V0Z" fill="white"/>
</mask>
<g mask="url(#mask0_126_7673)">
<path d="M26.9999 25.1254C26.7599 25.1254 26.5349 25.0504 26.3249 24.9004C25.8299 24.5254 25.7249 23.8204 26.0999 23.3254C27.9899 20.8054 28.3949 17.4604 27.1799 14.5655C26.9399 13.9955 27.2099 13.3355 27.7799 13.0955C28.3499 12.8555 29.0099 13.1255 29.2499 13.6955C30.7799 17.3254 30.2549 21.5404 27.8999 24.6904C27.6749 24.9754 27.3449 25.1254 26.9999 25.1254Z" fill="white"/>
<path d="M29.745 28.8753C29.505 28.8753 29.28 28.8003 29.07 28.6503C28.575 28.2753 28.47 27.5703 28.845 27.0753C32.055 22.8003 32.76 17.0703 30.69 12.1353C30.45 11.5653 30.72 10.9053 31.29 10.6653C31.86 10.4253 32.52 10.6953 32.76 11.2653C35.145 16.9353 34.335 23.5053 30.645 28.4253C30.435 28.7253 30.09 28.8753 29.745 28.8753Z" fill="white"/>
<path d="M21.06 19.44C22.005 18.495 23.625 19.17 23.625 20.505V24.9C23.625 27.48 22.695 29.415 21.03 30.345C20.355 30.72 19.605 30.9 18.825 30.9C17.625 30.9 16.335 30.495 15.015 29.67L14.055 29.07C13.245 28.56 13.11 27.42 13.785 26.745L21.06 19.44Z" fill="white"/>
<path d="M32.655 3.34482C32.205 2.89482 31.47 2.89482 31.02 3.34482L23.595 10.7698C23.505 8.36982 22.605 6.56982 21.015 5.68482C19.335 4.75482 17.19 4.99482 15 6.35982L10.635 9.08982C10.335 9.26982 9.99 9.37482 9.645 9.37482H8.25H7.5C3.87 9.37482 1.875 11.3698 1.875 14.9998V20.9999C1.875 24.6299 3.87 26.6249 7.5 26.6249H7.74L3.33 31.0349C2.88 31.4849 2.88 32.2199 3.33 32.6699C3.57 32.8799 3.855 32.9999 4.155 32.9999C4.455 32.9999 4.74 32.8799 4.965 32.6549L32.655 4.96482C33.12 4.51482 33.12 3.79482 32.655 3.34482Z" fill="white"/>
</g>
</g>
<defs>
<clipPath id="clip0_126_7673">
<rect width="36" height="36" fill="white"/>
</clipPath>
</defs>
</svg>
